G04*
G04 #@! TF.GenerationSoftware,Altium Limited,CircuitMaker,2.2.1 (2.2.1.6)*
G04*
G04 Layer_Physical_Order=2*
G04 Layer_Color=11436288*
%FSTAX43Y43*%
%MOMM*%
G71*
G04*
G04 #@! TF.SameCoordinates,C8B466FA-36BC-4938-8632-075A3B1F3AF2*
G04*
G04*
G04 #@! TF.FilePolarity,Positive*
G04*
G01*
G75*
%ADD10C,0.254*%
%ADD42C,0.304*%
%ADD43C,0.354*%
%ADD44C,1.524*%
%ADD45C,2.286*%
%ADD46C,3.988*%
%ADD47C,1.397*%
%ADD48R,1.397X1.397*%
%ADD49O,2.400X0.900*%
%ADD50O,0.850X0.580*%
%ADD51O,1.700X0.900*%
%ADD52C,0.600*%
%ADD53R,1.700X0.800*%
%ADD54R,0.800X0.800*%
G36*
X01195Y00258D02*
X00255D01*
Y0042186D01*
X0025596Y0042346D01*
X00257Y0042346D01*
X0026573D01*
Y0043D01*
Y0043654D01*
X00257D01*
X0025596Y0043654D01*
X00255Y0043814D01*
Y00807D01*
X01195D01*
Y00258D01*
D02*
G37*
%LPC*%
G36*
X0115163Y007765D02*
X0114837D01*
X0114519Y0077587D01*
X0114218Y0077462D01*
X0113948Y0077282D01*
X0113718Y0077052D01*
X0113538Y0076782D01*
X0113413Y0076481D01*
X011335Y0076163D01*
Y0075837D01*
X0113413Y0075519D01*
X0113538Y0075218D01*
X0113718Y0074948D01*
X0113948Y0074718D01*
X0114218Y0074538D01*
X0114519Y0074413D01*
X0114837Y007435D01*
X0115163D01*
X0115481Y0074413D01*
X0115782Y0074538D01*
X0116052Y0074718D01*
X0116282Y0074948D01*
X0116462Y0075218D01*
X0116587Y0075519D01*
X011665Y0075837D01*
Y0076163D01*
X0116587Y0076481D01*
X0116462Y0076782D01*
X0116282Y0077052D01*
X0116052Y0077282D01*
X0115782Y0077462D01*
X0115481Y0077587D01*
X0115163Y007765D01*
D02*
G37*
G36*
X0029163D02*
X0028837D01*
X0028519Y0077587D01*
X0028218Y0077462D01*
X0027948Y0077282D01*
X0027718Y0077052D01*
X0027538Y0076782D01*
X0027413Y0076481D01*
X002735Y0076163D01*
Y0075837D01*
X0027413Y0075519D01*
X0027538Y0075218D01*
X0027718Y0074948D01*
X0027948Y0074718D01*
X0028218Y0074538D01*
X0028519Y0074413D01*
X0028837Y007435D01*
X0029163D01*
X0029481Y0074413D01*
X0029782Y0074538D01*
X0030052Y0074718D01*
X0030282Y0074948D01*
X0030462Y0075218D01*
X0030587Y0075519D01*
X003065Y0075837D01*
Y0076163D01*
X0030587Y0076481D01*
X0030462Y0076782D01*
X0030282Y0077052D01*
X0030052Y0077282D01*
X0029782Y0077462D01*
X0029481Y0077587D01*
X0029163Y007765D01*
D02*
G37*
G36*
X003253Y006966D02*
X0031907D01*
Y0069077D01*
X0033223D01*
X0033216Y0069134D01*
X0033145Y0069305D01*
X0033032Y0069452D01*
X0032885Y0069565D01*
X0032714Y0069636D01*
X003253Y006966D01*
D02*
G37*
G36*
X0031653D02*
X003103D01*
X0030846Y0069636D01*
X0030675Y0069565D01*
X0030528Y0069452D01*
X0030415Y0069305D01*
X0030344Y0069134D01*
X0030337Y0069077D01*
X0031653D01*
Y006966D01*
D02*
G37*
G36*
X00288D02*
X0028527D01*
Y0069077D01*
X0029493D01*
X0029486Y0069134D01*
X0029415Y0069305D01*
X0029302Y0069452D01*
X0029155Y0069565D01*
X0028984Y0069636D01*
X00288Y006966D01*
D02*
G37*
G36*
X0028273D02*
X0028D01*
X0027816Y0069636D01*
X0027645Y0069565D01*
X0027498Y0069452D01*
X0027385Y0069305D01*
X0027314Y0069134D01*
X0027307Y0069077D01*
X0028273D01*
Y006966D01*
D02*
G37*
G36*
X0029493Y0068823D02*
X0028527D01*
Y006824D01*
X00288D01*
X0028984Y0068264D01*
X0029155Y0068335D01*
X0029302Y0068448D01*
X0029415Y0068595D01*
X0029486Y0068766D01*
X0029493Y0068823D01*
D02*
G37*
G36*
X0028273D02*
X0027307D01*
X0027314Y0068766D01*
X0027385Y0068595D01*
X0027498Y0068448D01*
X0027645Y0068335D01*
X0027816Y0068264D01*
X0028Y006824D01*
X0028273D01*
Y0068823D01*
D02*
G37*
G36*
X003479Y007035D02*
X003461D01*
X0034445Y0070281D01*
X0034319Y0070155D01*
X003425Y006999D01*
Y0069885D01*
X0034082Y0069718D01*
X0034016Y0069618D01*
X0033992Y00695D01*
Y0067928D01*
X0033642Y0067578D01*
X0033597Y0067583D01*
X0033438Y0067657D01*
X0033407Y0067812D01*
X0033287Y0067992D01*
X0033107Y0068112D01*
X0032947Y0068144D01*
X0032902Y0068284D01*
X0032905Y006835D01*
X0033032Y0068448D01*
X0033145Y0068595D01*
X0033216Y0068766D01*
X0033223Y0068823D01*
X0030337D01*
X0030344Y0068766D01*
X0030415Y0068595D01*
X0030528Y0068448D01*
X0030675Y0068335D01*
X0030846Y0068264D01*
X0030916Y0068255D01*
X0030965Y0068047D01*
X0030883Y0067992D01*
X0030763Y0067812D01*
X0030746Y0067727D01*
X003141D01*
Y0067473D01*
X0030746D01*
X0030763Y0067388D01*
X003086Y0067242D01*
X0030958Y0067067D01*
X0030861Y0066922D01*
X0030826Y006675D01*
X0030861Y0066578D01*
X0030958Y0066433D01*
Y0066217D01*
X0030861Y0066072D01*
X0030826Y00659D01*
X0030861Y0065728D01*
X0030958Y0065583D01*
Y0065367D01*
X0030861Y0065222D01*
X0030826Y006505D01*
X0030861Y0064878D01*
X0030958Y0064733D01*
Y0064517D01*
X0030861Y0064372D01*
X0030826Y00642D01*
X0030861Y0064028D01*
X0030958Y0063883D01*
Y0063667D01*
X0030861Y0063522D01*
X0030826Y006335D01*
X0030861Y0063178D01*
X0030958Y0063033D01*
Y0062817D01*
X0030861Y0062672D01*
X0030826Y00625D01*
X0030861Y0062328D01*
X0030958Y0062183D01*
X003086Y0062008D01*
X0030763Y0061862D01*
X0030746Y0061777D01*
X003141D01*
Y0061523D01*
X0030746D01*
X0030763Y0061438D01*
X0030883Y0061258D01*
X0030965Y0061203D01*
X0030916Y0060995D01*
X0030846Y0060986D01*
X0030675Y0060915D01*
X0030528Y0060802D01*
X0030415Y0060655D01*
X0030344Y0060484D01*
X0030337Y0060427D01*
X0033223D01*
X0033216Y0060484D01*
X0033145Y0060655D01*
X0033032Y0060802D01*
X0032905Y00609D01*
X0032902Y0060966D01*
X0032947Y0061106D01*
X0033107Y0061138D01*
X0033287Y0061258D01*
X0033407Y0061438D01*
X0033424Y0061523D01*
X003276D01*
Y0061777D01*
X0033424D01*
X0033407Y0061862D01*
X003331Y0062008D01*
X0033212Y0062183D01*
X0033309Y0062328D01*
X0033344Y00625D01*
X0033309Y0062672D01*
X0033212Y0062817D01*
Y0063033D01*
X0033309Y0063178D01*
X0033344Y006335D01*
X0033309Y0063522D01*
X0033212Y0063667D01*
Y0063883D01*
X0033309Y0064028D01*
X0033344Y00642D01*
X0033309Y0064372D01*
X0033212Y0064517D01*
Y0064733D01*
X0033309Y0064878D01*
X0033344Y006505D01*
X0033309Y0065222D01*
X0033212Y0065367D01*
Y0065583D01*
X0033309Y0065728D01*
X0033344Y00659D01*
X0033309Y0066072D01*
X0033212Y0066217D01*
Y0066252D01*
X003325Y0066442D01*
X0033368Y0066466D01*
X0033468Y0066532D01*
X0034518Y0067582D01*
X0034518Y0067582D01*
X0034584Y0067682D01*
X0034608Y00678D01*
X0034608Y00678D01*
Y0069227D01*
X0034781Y006934D01*
X0034835Y0069329D01*
X0038853Y0065311D01*
Y0065089D01*
X0036715Y006295D01*
X003661D01*
X0036445Y0062881D01*
X0036319Y0062755D01*
X003625Y006259D01*
Y006241D01*
X0036319Y0062245D01*
X0036445Y0062119D01*
X003661Y006205D01*
X003679D01*
X0036955Y0062119D01*
X0037081Y0062245D01*
X003715Y006241D01*
Y0062515D01*
X0039418Y0064782D01*
X0039418Y0064782D01*
X0039485Y0064882D01*
X0039508Y0065D01*
Y0065092D01*
X0055459D01*
X0055532Y0065018D01*
X0055698Y006495D01*
X0055877D01*
X0056042Y0065018D01*
X0056169Y0065145D01*
X0056237Y006531D01*
Y0065489D01*
X0056169Y0065655D01*
X0056042Y0065781D01*
X0055877Y006585D01*
X0055698D01*
X0055532Y0065781D01*
X0055459Y0065708D01*
X0039328D01*
X003515Y0069885D01*
Y006999D01*
X0035081Y0070155D01*
X0034955Y0070281D01*
X003479Y007035D01*
D02*
G37*
G36*
X004369Y006475D02*
X004351D01*
X0043345Y0064681D01*
X0043239Y0064575D01*
X0040904D01*
X0040805Y0064674D01*
X004064Y0064743D01*
X0040461D01*
X0040295Y0064674D01*
X0040169Y0064548D01*
X00401Y0064382D01*
Y0064203D01*
X0040169Y0064038D01*
X0040295Y0063911D01*
X0040461Y0063843D01*
X004064D01*
X0040805Y0063911D01*
X0040904Y006401D01*
X0043253D01*
X0043345Y0063919D01*
X004351Y006385D01*
X004369D01*
X0043855Y0063919D01*
X0043981Y0064045D01*
X004405Y006421D01*
Y006439D01*
X0043981Y0064555D01*
X0043855Y0064681D01*
X004369Y006475D01*
D02*
G37*
G36*
X005165Y0064468D02*
Y0064048D01*
X005207D01*
X0051993Y0064235D01*
X0051837Y006439D01*
X005165Y0064468D01*
D02*
G37*
G36*
X0051396D02*
X0051209Y006439D01*
X0051054Y0064235D01*
X0050976Y0064048D01*
X0051396D01*
Y0064468D01*
D02*
G37*
G36*
X005207Y0063794D02*
X005165D01*
Y0063374D01*
X0051837Y0063451D01*
X0051993Y0063607D01*
X005207Y0063794D01*
D02*
G37*
G36*
X0051396D02*
X0050976D01*
X0051054Y0063607D01*
X0051209Y0063451D01*
X0051396Y0063374D01*
Y0063794D01*
D02*
G37*
G36*
X0079584Y0064497D02*
X0079527D01*
Y0063227D01*
X0080797D01*
Y0063284D01*
X0080702Y0063639D01*
X0080518Y0063958D01*
X0080258Y0064218D01*
X0079939Y0064402D01*
X0079584Y0064497D01*
D02*
G37*
G36*
X0079273D02*
X0079216D01*
X0078861Y0064402D01*
X0078542Y0064218D01*
X0078282Y0063958D01*
X0078098Y0063639D01*
X0078003Y0063284D01*
Y0063227D01*
X0079273D01*
Y0064497D01*
D02*
G37*
G36*
X0099644Y0064477D02*
X0099587D01*
Y0063207D01*
X0100857D01*
Y0063264D01*
X0100762Y0063619D01*
X0100578Y0063938D01*
X0100318Y0064198D01*
X0099999Y0064382D01*
X0099644Y0064477D01*
D02*
G37*
G36*
X0099333D02*
X0099276D01*
X0098921Y0064382D01*
X0098602Y0064198D01*
X0098342Y0063938D01*
X0098158Y0063619D01*
X0098063Y0063264D01*
Y0063207D01*
X0099333D01*
Y0064477D01*
D02*
G37*
G36*
X0080797Y0062973D02*
X0079527D01*
Y0061703D01*
X0079584D01*
X0079939Y0061798D01*
X0080258Y0061982D01*
X0080518Y0062242D01*
X0080702Y0062561D01*
X0080797Y0062916D01*
Y0062973D01*
D02*
G37*
G36*
X0079273D02*
X0078003D01*
Y0062916D01*
X0078098Y0062561D01*
X0078282Y0062242D01*
X0078542Y0061982D01*
X0078861Y0061798D01*
X0079216Y0061703D01*
X0079273D01*
Y0062973D01*
D02*
G37*
G36*
X0100857Y0062953D02*
X0099587D01*
Y0061683D01*
X0099644D01*
X0099999Y0061778D01*
X0100318Y0061962D01*
X0100578Y0062222D01*
X0100762Y0062541D01*
X0100857Y0062896D01*
Y0062953D01*
D02*
G37*
G36*
X0099333D02*
X0098063D01*
Y0062896D01*
X0098158Y0062541D01*
X0098342Y0062222D01*
X0098602Y0061962D01*
X0098921Y0061778D01*
X0099276Y0061683D01*
X0099333D01*
Y0062953D01*
D02*
G37*
G36*
X0051634Y0061584D02*
Y0061164D01*
X0052054D01*
X0051977Y0061351D01*
X0051821Y0061507D01*
X0051634Y0061584D01*
D02*
G37*
G36*
X005138D02*
X0051193Y0061507D01*
X0051038Y0061351D01*
X005096Y0061164D01*
X005138D01*
Y0061584D01*
D02*
G37*
G36*
X0052054Y006091D02*
X0051634D01*
Y006049D01*
X0051821Y0060568D01*
X0051977Y0060723D01*
X0052054Y006091D01*
D02*
G37*
G36*
X005138D02*
X005096D01*
X0051038Y0060723D01*
X0051193Y0060568D01*
X005138Y006049D01*
Y006091D01*
D02*
G37*
G36*
X00288Y006101D02*
X0028527D01*
Y0060427D01*
X0029493D01*
X0029486Y0060484D01*
X0029415Y0060655D01*
X0029302Y0060802D01*
X0029155Y0060915D01*
X0028984Y0060986D01*
X00288Y006101D01*
D02*
G37*
G36*
X0028273D02*
X0028D01*
X0027816Y0060986D01*
X0027645Y0060915D01*
X0027498Y0060802D01*
X0027385Y0060655D01*
X0027314Y0060484D01*
X0027307Y0060427D01*
X0028273D01*
Y006101D01*
D02*
G37*
G36*
X0033223Y0060173D02*
X0031907D01*
Y005959D01*
X003253D01*
X0032714Y0059614D01*
X0032885Y0059685D01*
X0033032Y0059798D01*
X0033145Y0059945D01*
X0033216Y0060116D01*
X0033223Y0060173D01*
D02*
G37*
G36*
X0031653D02*
X0030337D01*
X0030344Y0060116D01*
X0030415Y0059945D01*
X0030528Y0059798D01*
X0030675Y0059685D01*
X0030846Y0059614D01*
X003103Y005959D01*
X0031653D01*
Y0060173D01*
D02*
G37*
G36*
X0029493D02*
X0028527D01*
Y005959D01*
X00288D01*
X0028984Y0059614D01*
X0029155Y0059685D01*
X0029302Y0059798D01*
X0029415Y0059945D01*
X0029486Y0060116D01*
X0029493Y0060173D01*
D02*
G37*
G36*
X0028273D02*
X0027307D01*
X0027314Y0060116D01*
X0027385Y0059945D01*
X0027498Y0059798D01*
X0027645Y0059685D01*
X0027816Y0059614D01*
X0028Y005959D01*
X0028273D01*
Y0060173D01*
D02*
G37*
G36*
X007149Y006035D02*
X007131D01*
X0071145Y0060281D01*
X0071019Y0060155D01*
X007095Y005999D01*
Y005981D01*
X0071019Y0059645D01*
X0071145Y0059519D01*
X007131Y005945D01*
X007149D01*
X0071655Y0059519D01*
X0071731Y0059595D01*
X0074327D01*
X0074426Y0059496D01*
X0074591Y0059427D01*
X007477D01*
X0074936Y0059496D01*
X0075062Y0059622D01*
X0075131Y0059788D01*
Y0059967D01*
X0075062Y0060132D01*
X0074936Y0060259D01*
X007477Y0060327D01*
X0074591D01*
X0074426Y0060259D01*
X0074327Y006016D01*
X0071777D01*
X0071655Y0060281D01*
X007149Y006035D01*
D02*
G37*
G36*
X008592Y0061853D02*
X008558D01*
X0085251Y0061765D01*
X0084956Y0061595D01*
X0084715Y0061354D01*
X0084545Y0061059D01*
X0084457Y006073D01*
Y006039D01*
X0084545Y0060061D01*
X0084715Y0059766D01*
X0084956Y0059525D01*
X0085251Y0059355D01*
X008558Y0059267D01*
X008592D01*
X0086249Y0059355D01*
X0086544Y0059525D01*
X0086785Y0059766D01*
X0086955Y0060061D01*
X0087043Y006039D01*
Y006073D01*
X0086955Y0061059D01*
X0086785Y0061354D01*
X0086544Y0061595D01*
X0086249Y0061765D01*
X008592Y0061853D01*
D02*
G37*
G36*
X010598Y0061833D02*
X010564D01*
X0105311Y0061745D01*
X0105016Y0061575D01*
X0104775Y0061334D01*
X0104605Y0061039D01*
X0104517Y006071D01*
Y006037D01*
X0104605Y0060041D01*
X0104775Y0059746D01*
X0105016Y0059505D01*
X0105311Y0059335D01*
X010564Y0059247D01*
X010598D01*
X0106309Y0059335D01*
X0106604Y0059505D01*
X0106845Y0059746D01*
X0107015Y0060041D01*
X0107103Y006037D01*
Y006071D01*
X0107015Y0061039D01*
X0106845Y0061334D01*
X0106604Y0061575D01*
X0106309Y0061745D01*
X010598Y0061833D01*
D02*
G37*
G36*
X0087152Y0059021D02*
X0086888D01*
X0086634Y0058953D01*
X0086405Y0058821D01*
X0086219Y0058635D01*
X0086087Y0058406D01*
X0086019Y0058152D01*
Y0057888D01*
X0086087Y0057634D01*
X0086219Y0057405D01*
X0086405Y0057219D01*
X0086634Y0057087D01*
X0086888Y0057019D01*
X0087152D01*
X0087406Y0057087D01*
X0087635Y0057219D01*
X0087821Y0057405D01*
X0087953Y0057634D01*
X0088021Y0057888D01*
Y0058152D01*
X0087953Y0058406D01*
X0087821Y0058635D01*
X0087635Y0058821D01*
X0087406Y0058953D01*
X0087152Y0059021D01*
D02*
G37*
G36*
X0076992D02*
X0076728D01*
X0076474Y0058953D01*
X0076245Y0058821D01*
X0076059Y0058635D01*
X0075927Y0058406D01*
X0075859Y0058152D01*
Y0057888D01*
X0075927Y0057634D01*
X0076059Y0057405D01*
X0076245Y0057219D01*
X0076474Y0057087D01*
X0076728Y0057019D01*
X0076992D01*
X0077246Y0057087D01*
X0077475Y0057219D01*
X0077661Y0057405D01*
X0077793Y0057634D01*
X0077861Y0057888D01*
Y0058152D01*
X0077793Y0058406D01*
X0077661Y0058635D01*
X0077475Y0058821D01*
X0077246Y0058953D01*
X0076992Y0059021D01*
D02*
G37*
G36*
X0107212Y0059001D02*
X0106948D01*
X0106694Y0058933D01*
X0106465Y0058801D01*
X0106279Y0058615D01*
X0106147Y0058386D01*
X0106079Y0058132D01*
Y0057868D01*
X0106147Y0057614D01*
X0106279Y0057385D01*
X0106465Y0057199D01*
X0106694Y0057067D01*
X0106948Y0056999D01*
X0107212D01*
X0107466Y0057067D01*
X0107695Y0057199D01*
X0107881Y0057385D01*
X0108013Y0057614D01*
X0108081Y0057868D01*
Y0058132D01*
X0108013Y0058386D01*
X0107881Y0058615D01*
X0107695Y0058801D01*
X0107466Y0058933D01*
X0107212Y0059001D01*
D02*
G37*
G36*
X0097052D02*
X0096788D01*
X0096534Y0058933D01*
X0096305Y0058801D01*
X0096119Y0058615D01*
X0095987Y0058386D01*
X0095919Y0058132D01*
Y0057868D01*
X0095987Y0057614D01*
X0096119Y0057385D01*
X0096305Y0057199D01*
X0096534Y0057067D01*
X0096788Y0056999D01*
X0097052D01*
X0097306Y0057067D01*
X0097535Y0057199D01*
X0097721Y0057385D01*
X0097853Y0057614D01*
X0097921Y0057868D01*
Y0058132D01*
X0097853Y0058386D01*
X0097721Y0058615D01*
X0097535Y0058801D01*
X0097306Y0058933D01*
X0097052Y0059001D01*
D02*
G37*
G36*
X005569Y005915D02*
X005551D01*
X0055345Y0059081D01*
X0055219Y0058955D01*
X005515Y005879D01*
Y005861D01*
X0055219Y0058445D01*
X0055318Y0058346D01*
Y0057917D01*
X0053382Y0055982D01*
X0053182Y0056065D01*
Y0056646D01*
X0053281Y0056745D01*
X005335Y005691D01*
Y005709D01*
X0053281Y0057255D01*
X0053155Y0057381D01*
X005299Y005745D01*
X005281D01*
X0052645Y0057381D01*
X0052519Y0057255D01*
X005245Y005709D01*
Y005691D01*
X0052484Y0056828D01*
X0052422Y0056757D01*
X0052323Y0056695D01*
X005219Y005675D01*
X005201D01*
X0051845Y0056681D01*
X0051746Y0056582D01*
X0049576D01*
X0049466Y0056693D01*
X00493Y0056761D01*
X0049121D01*
X0048956Y0056693D01*
X0048829Y0056566D01*
X0048761Y0056401D01*
Y0056222D01*
X0048829Y0056056D01*
X0048956Y005593D01*
X0049121Y0055861D01*
X00493D01*
X0049466Y005593D01*
X0049554Y0056018D01*
X0051746D01*
X0051845Y0055919D01*
X005201Y005585D01*
X0052168D01*
X0052213Y0055794D01*
X0052266Y0055665D01*
X0045883Y0049282D01*
X0031917D01*
X0031782Y0049417D01*
Y0052183D01*
X0032017Y0052418D01*
X0032297D01*
X0032309Y0052372D01*
X0032421Y0052179D01*
X0032579Y0052021D01*
X0032772Y0051909D01*
X0032988Y0051852D01*
X0032986Y0051653D01*
X0032975D01*
X0032732Y0051588D01*
X0032515Y0051462D01*
X0032338Y0051285D01*
X0032212Y0051068D01*
X0032148Y0050827D01*
X00331D01*
Y00507D01*
X0033227D01*
Y0049748D01*
X0033468Y0049812D01*
X0033685Y0049938D01*
X0033862Y0050115D01*
X0033988Y0050332D01*
X0034053Y0050575D01*
Y0050586D01*
X0034251Y0050588D01*
X0034309Y0050372D01*
X0034421Y0050179D01*
X0034579Y0050021D01*
X0034772Y0049909D01*
X0034988Y0049852D01*
X0035212D01*
X0035428Y0049909D01*
X0035621Y0050021D01*
X0035779Y0050179D01*
X0035891Y0050372D01*
X0035949Y0050588D01*
Y0050812D01*
X0035891Y0051028D01*
X0035779Y0051221D01*
X0035621Y0051379D01*
X0035428Y0051491D01*
X0035212Y0051549D01*
X0034988D01*
X0034772Y0051491D01*
X0034579Y0051379D01*
X0034421Y0051221D01*
X0034309Y0051028D01*
X0034251Y0050812D01*
X0034053Y0050814D01*
Y0050825D01*
X0033988Y0051068D01*
X0033862Y0051285D01*
X0033685Y0051462D01*
X0033468Y0051588D01*
X0033225Y0051653D01*
X0033214D01*
X0033212Y0051852D01*
X0033428Y0051909D01*
X0033621Y0052021D01*
X0033779Y0052179D01*
X0033891Y0052372D01*
X0033949Y0052588D01*
Y0052812D01*
X0033891Y0053028D01*
X0033779Y0053221D01*
X0033621Y0053379D01*
X0033428Y0053491D01*
X0033212Y0053549D01*
X0032988D01*
X0032772Y0053491D01*
X0032579Y0053379D01*
X0032421Y0053221D01*
X0032309Y0053028D01*
X0032297Y0052982D01*
X00319D01*
X00319Y0052982D01*
X0031792Y0052961D01*
X00317Y00529D01*
X00317Y00529D01*
X00313Y00525D01*
X0031239Y0052408D01*
X0031218Y00523D01*
X0031218Y00523D01*
Y00493D01*
X0031218Y00493D01*
X0031239Y0049192D01*
X00313Y00491D01*
X00316Y00488D01*
X00316Y00488D01*
X0031692Y0048739D01*
X00318Y0048718D01*
X00318Y0048718D01*
X0045835D01*
X0045918Y0048518D01*
X0044083Y0046682D01*
X00277D01*
Y004695D01*
X00257D01*
Y004585D01*
X00277D01*
Y0046118D01*
X00442D01*
X00442Y0046118D01*
X0044308Y0046139D01*
X00444Y00462D01*
X00558Y00576D01*
X00558Y00576D01*
X0055861Y0057692D01*
X0055882Y00578D01*
X0055882Y00578D01*
Y0058346D01*
X0055981Y0058445D01*
X005605Y005861D01*
Y005879D01*
X0055981Y0058955D01*
X0055855Y0059081D01*
X005569Y005915D01*
D02*
G37*
G36*
X0082151Y0060164D02*
X0081729D01*
X0081315Y0060082D01*
X0080924Y005992D01*
X0080573Y0059685D01*
X0080275Y0059387D01*
X008004Y0059036D01*
X0079878Y0058645D01*
X0079796Y0058231D01*
Y0057809D01*
X0079878Y0057395D01*
X008004Y0057004D01*
X0080275Y0056653D01*
X0080573Y0056355D01*
X0080924Y005612D01*
X0081315Y0055958D01*
X0081729Y0055876D01*
X0082151D01*
X0082565Y0055958D01*
X0082956Y005612D01*
X0083307Y0056355D01*
X0083605Y0056653D01*
X008384Y0057004D01*
X0084002Y0057395D01*
X0084084Y0057809D01*
Y0058231D01*
X0084002Y0058645D01*
X008384Y0059036D01*
X0083605Y0059387D01*
X0083307Y0059685D01*
X0082956Y005992D01*
X0082565Y0060082D01*
X0082151Y0060164D01*
D02*
G37*
G36*
X0102211Y0060144D02*
X0101789D01*
X0101375Y0060062D01*
X0100984Y00599D01*
X0100633Y0059665D01*
X0100335Y0059367D01*
X01001Y0059016D01*
X0099938Y0058625D01*
X0099856Y0058211D01*
Y0057789D01*
X0099938Y0057375D01*
X01001Y0056984D01*
X0100335Y0056633D01*
X0100633Y0056335D01*
X0100984Y00561D01*
X0101375Y0055938D01*
X0101789Y0055856D01*
X0102211D01*
X0102625Y0055938D01*
X0103016Y00561D01*
X0103367Y0056335D01*
X0103665Y0056633D01*
X01039Y0056984D01*
X0104062Y0057375D01*
X0104144Y0057789D01*
Y0058211D01*
X0104062Y0058625D01*
X01039Y0059016D01*
X0103665Y0059367D01*
X0103367Y0059665D01*
X0103016Y00599D01*
X0102625Y0060062D01*
X0102211Y0060144D01*
D02*
G37*
G36*
X0035949Y0055549D02*
X0034251D01*
Y0053852D01*
X0035949D01*
Y0055549D01*
D02*
G37*
G36*
X0033212D02*
X0032988D01*
X0032772Y0055491D01*
X0032579Y0055379D01*
X0032421Y0055221D01*
X0032309Y0055028D01*
X0032251Y0054812D01*
Y0054588D01*
X0032309Y0054372D01*
X0032421Y0054179D01*
X0032579Y0054021D01*
X0032772Y0053909D01*
X0032988Y0053852D01*
X0033212D01*
X0033428Y0053909D01*
X0033621Y0054021D01*
X0033779Y0054179D01*
X0033891Y0054372D01*
X0033949Y0054588D01*
Y0054812D01*
X0033891Y0055028D01*
X0033779Y0055221D01*
X0033621Y0055379D01*
X0033428Y0055491D01*
X0033212Y0055549D01*
D02*
G37*
G36*
X0071827Y0054147D02*
Y0053727D01*
X0072247D01*
X007217Y0053914D01*
X0072014Y005407D01*
X0071827Y0054147D01*
D02*
G37*
G36*
X0071573D02*
X0071386Y005407D01*
X007123Y0053914D01*
X0071153Y0053727D01*
X0071573D01*
Y0054147D01*
D02*
G37*
G36*
X0054327Y0054047D02*
Y0053627D01*
X0054747D01*
X005467Y0053814D01*
X0054514Y005397D01*
X0054327Y0054047D01*
D02*
G37*
G36*
X0054073D02*
X0053886Y005397D01*
X005373Y0053814D01*
X0053653Y0053627D01*
X0054073D01*
Y0054047D01*
D02*
G37*
G36*
X006459Y005355D02*
X006441D01*
X0064245Y0053481D01*
X0064119Y0053355D01*
X0064088Y005328D01*
X0063966Y0053265D01*
X0063867Y005327D01*
X0063755Y0053381D01*
X006359Y005345D01*
X006341D01*
X0063245Y0053381D01*
X0063119Y0053255D01*
X006305Y005309D01*
Y0052949D01*
X0050923Y0040822D01*
X0047073D01*
X0047015Y0041039D01*
X0046845Y0041334D01*
X0046604Y0041575D01*
X0046309Y0041745D01*
X004598Y0041833D01*
X004564D01*
X0045311Y0041745D01*
X0045016Y0041575D01*
X0044775Y0041334D01*
X0044605Y0041039D01*
X0044517Y004071D01*
Y004037D01*
X0044605Y0040041D01*
X0044775Y0039746D01*
X0045016Y0039505D01*
X0045311Y0039335D01*
X004564Y0039247D01*
X004598D01*
X0046309Y0039335D01*
X0046604Y0039505D01*
X0046845Y0039746D01*
X0047015Y0040041D01*
X0047073Y0040258D01*
X005104D01*
X005104Y0040258D01*
X0051148Y0040279D01*
X005124Y004034D01*
X0058776Y0047877D01*
X0059012Y004783D01*
X005903Y0047786D01*
X0059186Y004763D01*
X0059373Y0047553D01*
Y00481D01*
X00595D01*
Y0048227D01*
X0060047D01*
X005997Y0048414D01*
X0059814Y004857D01*
X005977Y0048588D01*
X0059723Y0048824D01*
X0063449Y005255D01*
X006359D01*
X0063755Y0052619D01*
X0063881Y0052745D01*
X0063912Y005282D01*
X0064034Y0052835D01*
X0064133Y005283D01*
X0064245Y0052719D01*
X006441Y005265D01*
X0064451D01*
X0065528Y0051573D01*
Y0041803D01*
X0065311Y0041745D01*
X0065016Y0041575D01*
X0064775Y0041334D01*
X0064605Y0041039D01*
X0064517Y004071D01*
Y004037D01*
X0064605Y0040041D01*
X0064775Y0039746D01*
X0065016Y0039505D01*
X0065311Y0039335D01*
X006564Y0039247D01*
X006598D01*
X0066309Y0039335D01*
X0066604Y0039505D01*
X0066845Y0039746D01*
X0067015Y0040041D01*
X0067103Y004037D01*
Y004071D01*
X0067015Y0041039D01*
X0066845Y0041334D01*
X0066604Y0041575D01*
X0066309Y0041745D01*
X0066092Y0041803D01*
Y005169D01*
X0066092Y005169D01*
X0066071Y0051798D01*
X006601Y005189D01*
X006601Y005189D01*
X0064932Y0052967D01*
X006495Y005301D01*
Y005319D01*
X0064881Y0053355D01*
X0064755Y0053481D01*
X006459Y005355D01*
D02*
G37*
G36*
X0081904Y0053754D02*
X0081377D01*
Y0053227D01*
X0081904D01*
Y0053754D01*
D02*
G37*
G36*
X0081123D02*
X0080596D01*
Y0053227D01*
X0081123D01*
Y0053754D01*
D02*
G37*
G36*
X0101904Y0053654D02*
X0101377D01*
Y0053127D01*
X0101904D01*
Y0053654D01*
D02*
G37*
G36*
X0101123D02*
X0100596D01*
Y0053127D01*
X0101123D01*
Y0053654D01*
D02*
G37*
G36*
X0072247Y0053473D02*
X0071827D01*
Y0053053D01*
X0072014Y005313D01*
X007217Y0053286D01*
X0072247Y0053473D01*
D02*
G37*
G36*
X0071573D02*
X0071153D01*
X007123Y0053286D01*
X0071386Y005313D01*
X0071573Y0053053D01*
Y0053473D01*
D02*
G37*
G36*
X0054747Y0053373D02*
X0054327D01*
Y0052953D01*
X0054514Y005303D01*
X005467Y0053186D01*
X0054747Y0053373D01*
D02*
G37*
G36*
X0054073D02*
X0053653D01*
X005373Y0053186D01*
X0053886Y005303D01*
X0054073Y0052953D01*
Y0053373D01*
D02*
G37*
G36*
X0081904Y0052973D02*
X0081377D01*
Y0052446D01*
X0081904D01*
Y0052973D01*
D02*
G37*
G36*
X0081123D02*
X0080596D01*
Y0052446D01*
X0081123D01*
Y0052973D01*
D02*
G37*
G36*
X0101904Y0052873D02*
X0101377D01*
Y0052346D01*
X0101904D01*
Y0052873D01*
D02*
G37*
G36*
X0101123D02*
X0100596D01*
Y0052346D01*
X0101123D01*
Y0052873D01*
D02*
G37*
G36*
X0035212Y0053549D02*
X0034988D01*
X0034772Y0053491D01*
X0034579Y0053379D01*
X0034421Y0053221D01*
X0034309Y0053028D01*
X0034251Y0052812D01*
Y0052588D01*
X0034309Y0052372D01*
X0034421Y0052179D01*
X0034579Y0052021D01*
X0034772Y0051909D01*
X0034988Y0051852D01*
X0035212D01*
X0035428Y0051909D01*
X0035621Y0052021D01*
X0035779Y0052179D01*
X0035891Y0052372D01*
X0035949Y0052588D01*
Y0052812D01*
X0035891Y0053028D01*
X0035779Y0053221D01*
X0035621Y0053379D01*
X0035428Y0053491D01*
X0035212Y0053549D01*
D02*
G37*
G36*
X00833Y005365D02*
X00822D01*
Y005255D01*
X0082418D01*
Y0052054D01*
X0082319Y0051955D01*
X008225Y005179D01*
Y005161D01*
X0082319Y0051445D01*
X0082445Y0051319D01*
X008261Y005125D01*
X008279D01*
X0082955Y0051319D01*
X0083081Y0051445D01*
X008315Y005161D01*
Y005179D01*
X0083081Y0051955D01*
X0082982Y0052054D01*
Y005255D01*
X00833D01*
Y005365D01*
D02*
G37*
G36*
X006899Y005345D02*
X006881D01*
X0068645Y0053381D01*
X0068519Y0053255D01*
X006845Y005309D01*
Y005291D01*
X0068519Y0052745D01*
X0068645Y0052619D01*
X006881Y005255D01*
X0068951D01*
X00703Y00512D01*
X00703Y00512D01*
X0070392Y0051139D01*
X00705Y0051118D01*
X0077246D01*
X0077345Y0051019D01*
X007751Y005095D01*
X007769D01*
X0077855Y0051019D01*
X0077981Y0051145D01*
X007805Y005131D01*
Y005149D01*
X0077981Y0051655D01*
X0077855Y0051781D01*
X007769Y005185D01*
X007751D01*
X0077345Y0051781D01*
X0077246Y0051682D01*
X0070617D01*
X006935Y0052949D01*
Y005309D01*
X0069281Y0053255D01*
X0069155Y0053381D01*
X006899Y005345D01*
D02*
G37*
G36*
X01033Y005355D02*
X01022D01*
Y005245D01*
X0102468D01*
Y0051604D01*
X0102419Y0051555D01*
X010235Y005139D01*
Y005121D01*
X0102419Y0051045D01*
X0102545Y0050919D01*
X010271Y005085D01*
X010289D01*
X0103055Y0050919D01*
X0103181Y0051045D01*
X010325Y005121D01*
Y005139D01*
X0103181Y0051555D01*
X0103055Y0051681D01*
X0103032Y0051691D01*
Y005245D01*
X01033D01*
Y005355D01*
D02*
G37*
G36*
X0032973Y0050573D02*
X0032148D01*
X0032212Y0050332D01*
X0032338Y0050115D01*
X0032515Y0049938D01*
X0032732Y0049812D01*
X0032973Y0049748D01*
Y0050573D01*
D02*
G37*
G36*
X0060047Y0047973D02*
X0059627D01*
Y0047553D01*
X0059814Y004763D01*
X005997Y0047786D01*
X0060047Y0047973D01*
D02*
G37*
G36*
X006719Y005245D02*
X006701D01*
X0066845Y0052381D01*
X0066719Y0052255D01*
X006665Y005209D01*
Y005191D01*
X0066719Y0051745D01*
X0066845Y0051619D01*
X006701Y005155D01*
X0067151D01*
X0071418Y0047283D01*
Y0045954D01*
X0071319Y0045855D01*
X007125Y004569D01*
Y004551D01*
X0071319Y0045345D01*
X0071445Y0045219D01*
X007161Y004515D01*
X007179D01*
X0071955Y0045219D01*
X0072081Y0045345D01*
X007215Y004551D01*
Y004569D01*
X0072081Y0045855D01*
X0071982Y0045954D01*
Y00474D01*
X0071961Y0047508D01*
X00719Y00476D01*
X00719Y00476D01*
X0068305Y0051195D01*
X0068418Y0051364D01*
X0068498Y0051331D01*
X0068638D01*
X0072818Y0047151D01*
Y0046454D01*
X0072719Y0046355D01*
X007265Y004619D01*
Y004601D01*
X0072719Y0045845D01*
X0072845Y0045719D01*
X007301Y004565D01*
X007319D01*
X0073355Y0045719D01*
X0073481Y0045845D01*
X007355Y004601D01*
Y004619D01*
X0073481Y0046355D01*
X0073382Y0046454D01*
Y0047268D01*
X0073361Y0047376D01*
X00733Y0047468D01*
X0069037Y0051731D01*
Y0051871D01*
X0068969Y0052036D01*
X0068842Y0052163D01*
X0068677Y0052231D01*
X0068498D01*
X0068332Y0052163D01*
X0068206Y0052036D01*
X0068137Y0051871D01*
Y0051692D01*
X006817Y0051612D01*
X0068001Y0051499D01*
X006755Y0051949D01*
Y005209D01*
X0067481Y0052255D01*
X0067355Y0052381D01*
X006719Y005245D01*
D02*
G37*
G36*
X0039644Y0044477D02*
X0039587D01*
Y0043207D01*
X0040857D01*
Y0043264D01*
X0040762Y0043619D01*
X0040578Y0043938D01*
X0040318Y0044198D01*
X0039999Y0044382D01*
X0039644Y0044477D01*
D02*
G37*
G36*
X0099644D02*
X0099587D01*
Y0043207D01*
X0100857D01*
Y0043264D01*
X0100762Y0043619D01*
X0100578Y0043938D01*
X0100318Y0044198D01*
X0099999Y0044382D01*
X0099644Y0044477D01*
D02*
G37*
G36*
X0079644D02*
X0079587D01*
Y0043207D01*
X0080857D01*
Y0043264D01*
X0080762Y0043619D01*
X0080578Y0043938D01*
X0080318Y0044198D01*
X0079999Y0044382D01*
X0079644Y0044477D01*
D02*
G37*
G36*
X0059644D02*
X0059587D01*
Y0043207D01*
X0060857D01*
Y0043264D01*
X0060762Y0043619D01*
X0060578Y0043938D01*
X0060318Y0044198D01*
X0059999Y0044382D01*
X0059644Y0044477D01*
D02*
G37*
G36*
X0079333D02*
X0079276D01*
X0078921Y0044382D01*
X0078602Y0044198D01*
X0078342Y0043938D01*
X0078158Y0043619D01*
X0078063Y0043264D01*
Y0043207D01*
X0079333D01*
Y0044477D01*
D02*
G37*
G36*
X0059333D02*
X0059276D01*
X0058921Y0044382D01*
X0058602Y0044198D01*
X0058342Y0043938D01*
X0058158Y0043619D01*
X0058063Y0043264D01*
Y0043207D01*
X0059333D01*
Y0044477D01*
D02*
G37*
G36*
X0039333D02*
X0039276D01*
X0038921Y0044382D01*
X0038602Y0044198D01*
X0038342Y0043938D01*
X0038158Y0043619D01*
X0038063Y0043264D01*
Y0043207D01*
X0039333D01*
Y0044477D01*
D02*
G37*
G36*
X0099333D02*
X0099276D01*
X0098921Y0044382D01*
X0098602Y0044198D01*
X0098342Y0043938D01*
X0098158Y0043619D01*
X0098063Y0043264D01*
Y0043207D01*
X0099333D01*
Y0044477D01*
D02*
G37*
G36*
X0026827Y0043654D02*
Y0043127D01*
X0027804D01*
Y0043654D01*
X0026827D01*
D02*
G37*
G36*
X0027804Y0042873D02*
X0026827D01*
Y0042346D01*
X0027804D01*
Y0042873D01*
D02*
G37*
G36*
X0100857Y0042953D02*
X0099587D01*
Y0041683D01*
X0099644D01*
X0099999Y0041778D01*
X0100318Y0041962D01*
X0100578Y0042222D01*
X0100762Y0042541D01*
X0100857Y0042896D01*
Y0042953D01*
D02*
G37*
G36*
X0099333D02*
X0098063D01*
Y0042896D01*
X0098158Y0042541D01*
X0098342Y0042222D01*
X0098602Y0041962D01*
X0098921Y0041778D01*
X0099276Y0041683D01*
X0099333D01*
Y0042953D01*
D02*
G37*
G36*
X0080857D02*
X0079587D01*
Y0041683D01*
X0079644D01*
X0079999Y0041778D01*
X0080318Y0041962D01*
X0080578Y0042222D01*
X0080762Y0042541D01*
X0080857Y0042896D01*
Y0042953D01*
D02*
G37*
G36*
X0079333D02*
X0078063D01*
Y0042896D01*
X0078158Y0042541D01*
X0078342Y0042222D01*
X0078602Y0041962D01*
X0078921Y0041778D01*
X0079276Y0041683D01*
X0079333D01*
Y0042953D01*
D02*
G37*
G36*
X0060857D02*
X0059587D01*
Y0041683D01*
X0059644D01*
X0059999Y0041778D01*
X0060318Y0041962D01*
X0060578Y0042222D01*
X0060762Y0042541D01*
X0060857Y0042896D01*
Y0042953D01*
D02*
G37*
G36*
X0059333D02*
X0058063D01*
Y0042896D01*
X0058158Y0042541D01*
X0058342Y0042222D01*
X0058602Y0041962D01*
X0058921Y0041778D01*
X0059276Y0041683D01*
X0059333D01*
Y0042953D01*
D02*
G37*
G36*
X0040857D02*
X0039587D01*
Y0041683D01*
X0039644D01*
X0039999Y0041778D01*
X0040318Y0041962D01*
X0040578Y0042222D01*
X0040762Y0042541D01*
X0040857Y0042896D01*
Y0042953D01*
D02*
G37*
G36*
X0039333D02*
X0038063D01*
Y0042896D01*
X0038158Y0042541D01*
X0038342Y0042222D01*
X0038602Y0041962D01*
X0038921Y0041778D01*
X0039276Y0041683D01*
X0039333D01*
Y0042953D01*
D02*
G37*
G36*
X010598Y0041833D02*
X010564D01*
X0105311Y0041745D01*
X0105016Y0041575D01*
X0104775Y0041334D01*
X0104605Y0041039D01*
X0104517Y004071D01*
Y004037D01*
X0104605Y0040041D01*
X0104775Y0039746D01*
X0105016Y0039505D01*
X0105311Y0039335D01*
X010564Y0039247D01*
X010598D01*
X0106309Y0039335D01*
X0106604Y0039505D01*
X0106845Y0039746D01*
X0107015Y0040041D01*
X0107103Y004037D01*
Y004071D01*
X0107015Y0041039D01*
X0106845Y0041334D01*
X0106604Y0041575D01*
X0106309Y0041745D01*
X010598Y0041833D01*
D02*
G37*
G36*
X008598D02*
X008564D01*
X0085311Y0041745D01*
X0085016Y0041575D01*
X0084775Y0041334D01*
X0084605Y0041039D01*
X0084517Y004071D01*
Y004037D01*
X0084605Y0040041D01*
X0084775Y0039746D01*
X0085016Y0039505D01*
X0085311Y0039335D01*
X008564Y0039247D01*
X008598D01*
X0086309Y0039335D01*
X0086604Y0039505D01*
X0086845Y0039746D01*
X0087015Y0040041D01*
X0087103Y004037D01*
Y004071D01*
X0087015Y0041039D01*
X0086845Y0041334D01*
X0086604Y0041575D01*
X0086309Y0041745D01*
X008598Y0041833D01*
D02*
G37*
G36*
X0107212Y0039001D02*
X0106948D01*
X0106694Y0038933D01*
X0106465Y0038801D01*
X0106279Y0038615D01*
X0106147Y0038386D01*
X0106079Y0038132D01*
Y0037868D01*
X0106147Y0037614D01*
X0106279Y0037385D01*
X0106465Y0037199D01*
X0106694Y0037067D01*
X0106948Y0036999D01*
X0107212D01*
X0107466Y0037067D01*
X0107695Y0037199D01*
X0107881Y0037385D01*
X0108013Y0037614D01*
X0108081Y0037868D01*
Y0038132D01*
X0108013Y0038386D01*
X0107881Y0038615D01*
X0107695Y0038801D01*
X0107466Y0038933D01*
X0107212Y0039001D01*
D02*
G37*
G36*
X0097052D02*
X0096788D01*
X0096534Y0038933D01*
X0096305Y0038801D01*
X0096119Y0038615D01*
X0095987Y0038386D01*
X0095919Y0038132D01*
Y0037868D01*
X0095987Y0037614D01*
X0096119Y0037385D01*
X0096305Y0037199D01*
X0096534Y0037067D01*
X0096788Y0036999D01*
X0097052D01*
X0097306Y0037067D01*
X0097535Y0037199D01*
X0097721Y0037385D01*
X0097853Y0037614D01*
X0097921Y0037868D01*
Y0038132D01*
X0097853Y0038386D01*
X0097721Y0038615D01*
X0097535Y0038801D01*
X0097306Y0038933D01*
X0097052Y0039001D01*
D02*
G37*
G36*
X0087212D02*
X0086948D01*
X0086694Y0038933D01*
X0086465Y0038801D01*
X0086279Y0038615D01*
X0086147Y0038386D01*
X0086079Y0038132D01*
Y0037868D01*
X0086147Y0037614D01*
X0086279Y0037385D01*
X0086465Y0037199D01*
X0086694Y0037067D01*
X0086948Y0036999D01*
X0087212D01*
X0087466Y0037067D01*
X0087695Y0037199D01*
X0087881Y0037385D01*
X0088013Y0037614D01*
X0088081Y0037868D01*
Y0038132D01*
X0088013Y0038386D01*
X0087881Y0038615D01*
X0087695Y0038801D01*
X0087466Y0038933D01*
X0087212Y0039001D01*
D02*
G37*
G36*
X0077052D02*
X0076788D01*
X0076534Y0038933D01*
X0076305Y0038801D01*
X0076119Y0038615D01*
X0075987Y0038386D01*
X0075919Y0038132D01*
Y0037868D01*
X0075987Y0037614D01*
X0076119Y0037385D01*
X0076305Y0037199D01*
X0076534Y0037067D01*
X0076788Y0036999D01*
X0077052D01*
X0077306Y0037067D01*
X0077535Y0037199D01*
X0077721Y0037385D01*
X0077853Y0037614D01*
X0077921Y0037868D01*
Y0038132D01*
X0077853Y0038386D01*
X0077721Y0038615D01*
X0077535Y0038801D01*
X0077306Y0038933D01*
X0077052Y0039001D01*
D02*
G37*
G36*
X0067212D02*
X0066948D01*
X0066694Y0038933D01*
X0066465Y0038801D01*
X0066279Y0038615D01*
X0066147Y0038386D01*
X0066079Y0038132D01*
Y0037868D01*
X0066147Y0037614D01*
X0066279Y0037385D01*
X0066465Y0037199D01*
X0066694Y0037067D01*
X0066948Y0036999D01*
X0067212D01*
X0067466Y0037067D01*
X0067695Y0037199D01*
X0067881Y0037385D01*
X0068013Y0037614D01*
X0068081Y0037868D01*
Y0038132D01*
X0068013Y0038386D01*
X0067881Y0038615D01*
X0067695Y0038801D01*
X0067466Y0038933D01*
X0067212Y0039001D01*
D02*
G37*
G36*
X0057052D02*
X0056788D01*
X0056534Y0038933D01*
X0056305Y0038801D01*
X0056119Y0038615D01*
X0055987Y0038386D01*
X0055919Y0038132D01*
Y0037868D01*
X0055987Y0037614D01*
X0056119Y0037385D01*
X0056305Y0037199D01*
X0056534Y0037067D01*
X0056788Y0036999D01*
X0057052D01*
X0057306Y0037067D01*
X0057535Y0037199D01*
X0057721Y0037385D01*
X0057853Y0037614D01*
X0057921Y0037868D01*
Y0038132D01*
X0057853Y0038386D01*
X0057721Y0038615D01*
X0057535Y0038801D01*
X0057306Y0038933D01*
X0057052Y0039001D01*
D02*
G37*
G36*
X0047212D02*
X0046948D01*
X0046694Y0038933D01*
X0046465Y0038801D01*
X0046279Y0038615D01*
X0046147Y0038386D01*
X0046079Y0038132D01*
Y0037868D01*
X0046147Y0037614D01*
X0046279Y0037385D01*
X0046465Y0037199D01*
X0046694Y0037067D01*
X0046948Y0036999D01*
X0047212D01*
X0047466Y0037067D01*
X0047695Y0037199D01*
X0047881Y0037385D01*
X0048013Y0037614D01*
X0048081Y0037868D01*
Y0038132D01*
X0048013Y0038386D01*
X0047881Y0038615D01*
X0047695Y0038801D01*
X0047466Y0038933D01*
X0047212Y0039001D01*
D02*
G37*
G36*
X0037052D02*
X0036788D01*
X0036534Y0038933D01*
X0036305Y0038801D01*
X0036119Y0038615D01*
X0035987Y0038386D01*
X0035919Y0038132D01*
Y0037868D01*
X0035987Y0037614D01*
X0036119Y0037385D01*
X0036305Y0037199D01*
X0036534Y0037067D01*
X0036788Y0036999D01*
X0037052D01*
X0037306Y0037067D01*
X0037535Y0037199D01*
X0037721Y0037385D01*
X0037853Y0037614D01*
X0037921Y0037868D01*
Y0038132D01*
X0037853Y0038386D01*
X0037721Y0038615D01*
X0037535Y0038801D01*
X0037306Y0038933D01*
X0037052Y0039001D01*
D02*
G37*
G36*
X0102211Y0040144D02*
X0101789D01*
X0101375Y0040062D01*
X0100984Y00399D01*
X0100633Y0039665D01*
X0100335Y0039367D01*
X01001Y0039016D01*
X0099938Y0038625D01*
X0099856Y0038211D01*
Y0037789D01*
X0099938Y0037375D01*
X01001Y0036984D01*
X0100335Y0036633D01*
X0100633Y0036335D01*
X0100984Y00361D01*
X0101375Y0035938D01*
X0101789Y0035856D01*
X0102211D01*
X0102625Y0035938D01*
X0103016Y00361D01*
X0103367Y0036335D01*
X0103665Y0036633D01*
X01039Y0036984D01*
X0104062Y0037375D01*
X0104144Y0037789D01*
Y0038211D01*
X0104062Y0038625D01*
X01039Y0039016D01*
X0103665Y0039367D01*
X0103367Y0039665D01*
X0103016Y00399D01*
X0102625Y0040062D01*
X0102211Y0040144D01*
D02*
G37*
G36*
X0082211D02*
X0081789D01*
X0081375Y0040062D01*
X0080984Y00399D01*
X0080633Y0039665D01*
X0080335Y0039367D01*
X00801Y0039016D01*
X0079938Y0038625D01*
X0079856Y0038211D01*
Y0037789D01*
X0079938Y0037375D01*
X00801Y0036984D01*
X0080335Y0036633D01*
X0080633Y0036335D01*
X0080984Y00361D01*
X0081375Y0035938D01*
X0081789Y0035856D01*
X0082211D01*
X0082625Y0035938D01*
X0083016Y00361D01*
X0083367Y0036335D01*
X0083665Y0036633D01*
X00839Y0036984D01*
X0084062Y0037375D01*
X0084144Y0037789D01*
Y0038211D01*
X0084062Y0038625D01*
X00839Y0039016D01*
X0083665Y0039367D01*
X0083367Y0039665D01*
X0083016Y00399D01*
X0082625Y0040062D01*
X0082211Y0040144D01*
D02*
G37*
G36*
X0062211D02*
X0061789D01*
X0061375Y0040062D01*
X0060984Y00399D01*
X0060633Y0039665D01*
X0060335Y0039367D01*
X00601Y0039016D01*
X0059938Y0038625D01*
X0059856Y0038211D01*
Y0037789D01*
X0059938Y0037375D01*
X00601Y0036984D01*
X0060335Y0036633D01*
X0060633Y0036335D01*
X0060984Y00361D01*
X0061375Y0035938D01*
X0061789Y0035856D01*
X0062211D01*
X0062625Y0035938D01*
X0063016Y00361D01*
X0063367Y0036335D01*
X0063665Y0036633D01*
X00639Y0036984D01*
X0064062Y0037375D01*
X0064144Y0037789D01*
Y0038211D01*
X0064062Y0038625D01*
X00639Y0039016D01*
X0063665Y0039367D01*
X0063367Y0039665D01*
X0063016Y00399D01*
X0062625Y0040062D01*
X0062211Y0040144D01*
D02*
G37*
G36*
X0042211D02*
X0041789D01*
X0041375Y0040062D01*
X0040984Y00399D01*
X0040633Y0039665D01*
X0040335Y0039367D01*
X00401Y0039016D01*
X0039938Y0038625D01*
X0039856Y0038211D01*
Y0037789D01*
X0039938Y0037375D01*
X00401Y0036984D01*
X0040335Y0036633D01*
X0040633Y0036335D01*
X0040984Y00361D01*
X0041375Y0035938D01*
X0041789Y0035856D01*
X0042211D01*
X0042625Y0035938D01*
X0043016Y00361D01*
X0043367Y0036335D01*
X0043665Y0036633D01*
X00439Y0036984D01*
X0044062Y0037375D01*
X0044144Y0037789D01*
Y0038211D01*
X0044062Y0038625D01*
X00439Y0039016D01*
X0043665Y0039367D01*
X0043367Y0039665D01*
X0043016Y00399D01*
X0042625Y0040062D01*
X0042211Y0040144D01*
D02*
G37*
G36*
X008909Y004125D02*
X008891D01*
X0088745Y0041181D01*
X0088619Y0041055D01*
X008855Y004089D01*
Y004071D01*
X0088619Y0040545D01*
X0088718Y0040446D01*
Y0035517D01*
X0086683Y0033482D01*
X008305D01*
X008305Y0033482D01*
X0082942Y0033461D01*
X0082926Y003345D01*
X00822D01*
Y003235D01*
X00833D01*
Y0032918D01*
X00868D01*
X00868Y0032918D01*
X0086908Y0032939D01*
X0087Y0033D01*
X00892Y00352D01*
X00892Y00352D01*
X0089261Y0035292D01*
X0089282Y00354D01*
X0089282Y00354D01*
Y0040446D01*
X0089381Y0040545D01*
X008945Y004071D01*
Y004089D01*
X0089381Y0041055D01*
X0089255Y0041181D01*
X008909Y004125D01*
D02*
G37*
G36*
X0061904Y0033654D02*
X0061377D01*
Y0033127D01*
X0061904D01*
Y0033654D01*
D02*
G37*
G36*
X0061123D02*
X0060596D01*
Y0033127D01*
X0061123D01*
Y0033654D01*
D02*
G37*
G36*
X0101904Y0033554D02*
X0101377D01*
Y0033027D01*
X0101904D01*
Y0033554D01*
D02*
G37*
G36*
X0041904D02*
X0041377D01*
Y0033027D01*
X0041904D01*
Y0033554D01*
D02*
G37*
G36*
X0081904D02*
X0081377D01*
Y0033027D01*
X0081904D01*
Y0033554D01*
D02*
G37*
G36*
X0081123D02*
X0080596D01*
Y0033027D01*
X0081123D01*
Y0033554D01*
D02*
G37*
G36*
X0101123D02*
X0100596D01*
Y0033027D01*
X0101123D01*
Y0033554D01*
D02*
G37*
G36*
X0041123D02*
X0040596D01*
Y0033027D01*
X0041123D01*
Y0033554D01*
D02*
G37*
G36*
X00633Y003355D02*
X00622D01*
Y003245D01*
X00633D01*
Y0032718D01*
X0064746D01*
X0064845Y0032619D01*
X006501Y003255D01*
X006519D01*
X0065355Y0032619D01*
X0065481Y0032745D01*
X006555Y003291D01*
Y003309D01*
X0065481Y0033255D01*
X0065355Y0033381D01*
X006519Y003345D01*
X006501D01*
X0064845Y0033381D01*
X0064746Y0033282D01*
X00633D01*
Y003355D01*
D02*
G37*
G36*
X00433Y003345D02*
X00422D01*
Y003235D01*
X00433D01*
Y0032618D01*
X0044646D01*
X0044745Y0032519D01*
X004491Y003245D01*
X004509D01*
X0045255Y0032519D01*
X0045381Y0032645D01*
X004545Y003281D01*
Y003299D01*
X0045381Y0033155D01*
X0045255Y0033281D01*
X004509Y003335D01*
X004491D01*
X0044745Y0033281D01*
X0044646Y0033182D01*
X00433D01*
Y003345D01*
D02*
G37*
G36*
X01033D02*
X01022D01*
Y003235D01*
X01033D01*
Y0032536D01*
X0104424D01*
X0104523Y0032437D01*
X0104688Y0032369D01*
X0104867D01*
X0105033Y0032437D01*
X0105159Y0032564D01*
X0105228Y0032729D01*
Y0032908D01*
X0105159Y0033074D01*
X0105033Y00332D01*
X0104867Y0033269D01*
X0104688D01*
X0104523Y00332D01*
X0104424Y0033101D01*
X01033D01*
Y003345D01*
D02*
G37*
G36*
X0061904Y0032873D02*
X0061377D01*
Y0032346D01*
X0061904D01*
Y0032873D01*
D02*
G37*
G36*
X0061123D02*
X0060596D01*
Y0032346D01*
X0061123D01*
Y0032873D01*
D02*
G37*
G36*
X0101904Y0032773D02*
X0101377D01*
Y0032246D01*
X0101904D01*
Y0032773D01*
D02*
G37*
G36*
X0101123D02*
X0100596D01*
Y0032246D01*
X0101123D01*
Y0032773D01*
D02*
G37*
G36*
X0081904D02*
X0081377D01*
Y0032246D01*
X0081904D01*
Y0032773D01*
D02*
G37*
G36*
X0081123D02*
X0080596D01*
Y0032246D01*
X0081123D01*
Y0032773D01*
D02*
G37*
G36*
X0041904D02*
X0041377D01*
Y0032246D01*
X0041904D01*
Y0032773D01*
D02*
G37*
G36*
X0041123D02*
X0040596D01*
Y0032246D01*
X0041123D01*
Y0032773D01*
D02*
G37*
G36*
X0029163Y003195D02*
X0028837D01*
X0028519Y0031887D01*
X0028218Y0031762D01*
X0027948Y0031582D01*
X0027718Y0031352D01*
X0027538Y0031082D01*
X0027413Y0030781D01*
X002735Y0030463D01*
Y0030137D01*
X0027413Y0029819D01*
X0027538Y0029518D01*
X0027718Y0029248D01*
X0027948Y0029018D01*
X0028218Y0028838D01*
X0028519Y0028713D01*
X0028837Y002865D01*
X0029163D01*
X0029481Y0028713D01*
X0029782Y0028838D01*
X0030052Y0029018D01*
X0030282Y0029248D01*
X0030462Y0029518D01*
X0030587Y0029819D01*
X003065Y0030137D01*
Y0030463D01*
X0030587Y0030781D01*
X0030462Y0031082D01*
X0030282Y0031352D01*
X0030052Y0031582D01*
X0029782Y0031762D01*
X0029481Y0031887D01*
X0029163Y003195D01*
D02*
G37*
G36*
X0115163Y003165D02*
X0114837D01*
X0114519Y0031587D01*
X0114218Y0031462D01*
X0113948Y0031282D01*
X0113718Y0031052D01*
X0113538Y0030782D01*
X0113413Y0030481D01*
X011335Y0030163D01*
Y0029837D01*
X0113413Y0029519D01*
X0113538Y0029218D01*
X0113718Y0028948D01*
X0113948Y0028718D01*
X0114218Y0028538D01*
X0114519Y0028413D01*
X0114837Y002835D01*
X0115163D01*
X0115481Y0028413D01*
X0115782Y0028538D01*
X0116052Y0028718D01*
X0116282Y0028948D01*
X0116462Y0029218D01*
X0116587Y0029519D01*
X011665Y0029837D01*
Y0030163D01*
X0116587Y0030481D01*
X0116462Y0030782D01*
X0116282Y0031052D01*
X0116052Y0031282D01*
X0115782Y0031462D01*
X0115481Y0031587D01*
X0115163Y003165D01*
D02*
G37*
%LPD*%
D10*
X0049222Y00563D02*
X00521D01*
X0049211Y0056311D02*
X0049222Y00563D01*
X00529Y00559D02*
Y0057D01*
X0068587Y0051781D02*
X00731Y0047268D01*
Y00461D02*
Y0047268D01*
X00717Y00456D02*
Y00474D01*
X00671Y0052D02*
X00717Y00474D01*
X0089Y00354D02*
Y00408D01*
X00868Y00332D02*
X0089Y00354D01*
X008305Y00332D02*
X00868D01*
X008275Y00329D02*
X008305Y00332D01*
X00689Y0053D02*
X00705Y00514D01*
X00776D01*
X00714Y00599D02*
X0071423Y0059877D01*
X0074681D01*
X005104Y004054D02*
X00635Y0053D01*
X004581Y004054D02*
X005104D01*
X00645Y0053D02*
Y00531D01*
Y0053D02*
X006581Y005169D01*
Y004054D02*
Y005169D01*
X00556Y00578D02*
Y00587D01*
X00442Y00464D02*
X00556Y00578D01*
X00267Y00464D02*
X00442D01*
X0046Y0049D02*
X00529Y00559D01*
X00318Y0049D02*
X0046D01*
X010275Y005135D02*
Y0053D01*
Y005135D02*
X01028Y00513D01*
X00827Y005305D02*
X008275Y00531D01*
X00827Y00517D02*
Y005305D01*
X0043593Y0064293D02*
X00436Y00643D01*
X004055Y0064293D02*
X0043593D01*
X00326Y00642D02*
X003276D01*
X003175Y006505D02*
X00326Y00642D01*
X003141Y006505D02*
X003175D01*
X00315Y00493D02*
X00318Y0049D01*
X00315Y00493D02*
Y00523D01*
X00319Y00527D01*
X00331D01*
X00334D01*
X010275Y00329D02*
X0102831Y0032819D01*
X0104778D01*
X006275Y0033D02*
X00651D01*
X004275Y00329D02*
X0045D01*
D42*
X00343Y00695D02*
X00347Y00699D01*
X00343Y00678D02*
Y00695D01*
X003325Y006675D02*
X00343Y00678D01*
X003276Y006675D02*
X003325D01*
X00392Y0065D02*
Y00654D01*
X00367Y00625D02*
X00392Y0065D01*
X00347Y00699D02*
X00392Y00654D01*
X0055787D01*
D43*
X007946Y004308D02*
X009946D01*
X007946D02*
Y005131D01*
X00727Y00536D02*
Y0057D01*
X00703Y00594D02*
X00727Y0057D01*
X00563Y00594D02*
X00703D01*
X00563Y00568D02*
Y00594D01*
X00727Y00536D02*
X007745D01*
X00717D02*
X00727D01*
X00592Y003505D02*
X006125Y0033D01*
X00592Y003505D02*
Y004282D01*
X005946Y004806D02*
X00595Y00481D01*
X007745Y00536D02*
X00791Y005525D01*
X00542Y00547D02*
X00563Y00568D01*
X0053044Y00595D02*
X00563D01*
X0051507Y0061037D02*
X0053044Y00595D01*
X00542Y00534D02*
Y00535D01*
X0051507Y0061037D02*
X0051523Y0061053D01*
Y0063921D01*
X00542Y00535D02*
Y00547D01*
X00284Y00603D02*
Y006895D01*
X005946Y004308D02*
Y004806D01*
X007946Y005131D02*
X008125Y00531D01*
X009946Y004308D02*
Y005121D01*
X010125Y0053D01*
X00392Y004282D02*
X003938Y0043D01*
X003946Y004308D01*
X00267Y0043D02*
X003938D01*
X00791Y00628D02*
X00794Y00631D01*
X00791Y005525D02*
Y00628D01*
Y005525D02*
X008125Y00531D01*
X00992Y006282D02*
X009946Y006308D01*
X00992Y005505D02*
Y006282D01*
Y005505D02*
X010125Y0053D01*
X009946Y003469D02*
X010125Y00329D01*
X009946Y003469D02*
Y004308D01*
X00392Y003495D02*
Y004282D01*
Y003495D02*
X004125Y00329D01*
X00592Y004282D02*
X005946Y004308D01*
X00792Y004282D02*
X007946Y004308D01*
X00792Y003495D02*
Y004282D01*
Y003495D02*
X008125Y00329D01*
D44*
X008702Y005802D02*
D03*
X007686D02*
D03*
X0115Y0076D02*
D03*
X0029D02*
D03*
X005692Y0038D02*
D03*
X006708D02*
D03*
X009692Y0058D02*
D03*
X010708D02*
D03*
X003692Y0038D02*
D03*
X004708D02*
D03*
X007692D02*
D03*
X008708D02*
D03*
X009692D02*
D03*
X010708D02*
D03*
X0115Y003D02*
D03*
X0029Y00303D02*
D03*
D45*
X00794Y00631D02*
D03*
X008575Y006056D02*
D03*
X006581Y004054D02*
D03*
X005946Y004308D02*
D03*
X010581Y006054D02*
D03*
X009946Y006308D02*
D03*
X004581Y004054D02*
D03*
X003946Y004308D02*
D03*
X008581Y004054D02*
D03*
X007946Y004308D02*
D03*
X010581Y004054D02*
D03*
X009946Y004308D02*
D03*
D46*
X008194Y005802D02*
D03*
X0062Y0038D02*
D03*
X0102Y0058D02*
D03*
X0042Y0038D02*
D03*
X0082D02*
D03*
X0102D02*
D03*
D47*
X00351Y00507D02*
D03*
Y00527D02*
D03*
X00331Y00507D02*
D03*
Y00527D02*
D03*
Y00547D02*
D03*
D48*
X00351D02*
D03*
D49*
X003178Y00603D02*
D03*
Y006895D02*
D03*
D50*
X003141Y006165D02*
D03*
Y00642D02*
D03*
Y006335D02*
D03*
Y00659D02*
D03*
Y006505D02*
D03*
Y00676D02*
D03*
Y00625D02*
D03*
Y006675D02*
D03*
X003276Y006165D02*
D03*
Y00642D02*
D03*
Y006335D02*
D03*
Y00659D02*
D03*
Y006505D02*
D03*
Y00676D02*
D03*
Y00625D02*
D03*
Y006675D02*
D03*
D51*
X00284Y00603D02*
D03*
Y006895D02*
D03*
D52*
X0049211Y0056311D02*
D03*
X00529Y0057D02*
D03*
X0068587Y0051781D02*
D03*
X00731Y00461D02*
D03*
X00717Y00456D02*
D03*
X0089Y00408D02*
D03*
X00689Y0053D02*
D03*
X00776Y00514D02*
D03*
X00714Y00599D02*
D03*
X0074681Y0059877D02*
D03*
X00635Y0053D02*
D03*
X00645Y00531D02*
D03*
X00671Y0052D02*
D03*
X00595Y00481D02*
D03*
X00717Y00536D02*
D03*
X0051507Y0061037D02*
D03*
X0051523Y0063921D02*
D03*
X00542Y00535D02*
D03*
X00556Y00587D02*
D03*
X00521Y00563D02*
D03*
X00367Y00625D02*
D03*
X01028Y00513D02*
D03*
X00827Y00517D02*
D03*
X0055787Y00654D02*
D03*
X00347Y00699D02*
D03*
X00436Y00643D02*
D03*
X004055Y0064293D02*
D03*
X0104778Y0032819D02*
D03*
X00651Y0033D02*
D03*
X0045Y00329D02*
D03*
D53*
X00267Y00464D02*
D03*
Y0043D02*
D03*
D54*
X008275Y00329D02*
D03*
X008125D02*
D03*
X006275Y0033D02*
D03*
X006125D02*
D03*
X004275Y00329D02*
D03*
X004125D02*
D03*
X008275Y00531D02*
D03*
X008125D02*
D03*
X010275Y0053D02*
D03*
X010125D02*
D03*
X010275Y00329D02*
D03*
X010125D02*
D03*
M02*
