M48
;Layer_Color=6321
;FILE_FORMAT=4:3
METRIC,LZ
;TYPE=PLATED
T1F00S00C0.300
T2F00S00C0.400
T4F00S00C0.750
T5F00S00C1.499
T6F00S00C3.000
%
T01
X0045Y00329
X00651Y0033
X0104778Y0032819
X01028Y00513
X00827Y00517
X0089Y00408
X00731Y00461
X00717Y00456
Y00536
X00689Y0053
X0068587Y0051781
X00671Y0052
X00645Y00531
X00635Y0053
X00595Y00481
X00542Y00535
X00529Y0057
X00521Y00563
X0049211Y0056311
X0051507Y0061037
X0051523Y0063921
X0055787Y00654
X00556Y00587
X00714Y00599
X0074681Y0059877
X00776Y00514
X00436Y00643
X004055Y0064293
X00367Y00625
X00347Y00699
T02
X003141Y006165
Y00625
Y006335
Y00642
Y006505
Y00659
Y006675
Y00676
X003276
Y006675
Y00659
Y006505
Y00642
Y006335
Y00625
Y006165
T04
X00331Y00507
X00351
Y00527
Y00547
X00331
Y00527
T05
X007946Y004308
X008581Y004054
X009946Y004308
X010581Y004054
Y006054
X009946Y006308
X008575Y006056
X00794Y00631
X006581Y004054
X005946Y004308
X004581Y004054
X003946Y004308
T06
X0029Y00303
X0115Y003
Y0076
X0029
M30
