G04*
G04 #@! TF.GenerationSoftware,Altium Limited,CircuitMaker,2.2.1 (2.2.1.6)*
G04*
G04 Layer_Physical_Order=1*
G04 Layer_Color=25308*
%FSTAX43Y43*%
%MOMM*%
G71*
G04*
G04 #@! TF.SameCoordinates,C8B466FA-36BC-4938-8632-075A3B1F3AF2*
G04*
G04*
G04 #@! TF.FilePolarity,Positive*
G04*
G01*
G75*
%ADD10C,0.254*%
%ADD34R,0.950X1.000*%
%ADD35R,1.000X0.950*%
%ADD36R,2.400X2.400*%
%ADD37R,3.200X1.000*%
%ADD38R,0.381X1.270*%
%ADD39R,1.270X0.381*%
%ADD40R,3.800X2.000*%
%ADD41R,1.500X2.000*%
%ADD42C,0.304*%
%ADD43C,0.354*%
%ADD44C,1.524*%
%ADD45C,2.286*%
%ADD46C,3.988*%
%ADD47C,1.397*%
%ADD48R,1.397X1.397*%
%ADD49O,2.400X0.900*%
%ADD50O,0.850X0.580*%
%ADD51O,1.700X0.900*%
%ADD52C,0.600*%
G36*
X01195Y00258D02*
X00255D01*
Y00807D01*
X01195D01*
Y00258D01*
D02*
G37*
%LPC*%
G36*
X0115163Y007765D02*
X0114837D01*
X0114519Y0077587D01*
X0114218Y0077462D01*
X0113948Y0077282D01*
X0113718Y0077052D01*
X0113538Y0076782D01*
X0113413Y0076481D01*
X011335Y0076163D01*
Y0075837D01*
X0113413Y0075519D01*
X0113538Y0075218D01*
X0113718Y0074948D01*
X0113948Y0074718D01*
X0114218Y0074538D01*
X0114519Y0074413D01*
X0114837Y007435D01*
X0115163D01*
X0115481Y0074413D01*
X0115782Y0074538D01*
X0116052Y0074718D01*
X0116282Y0074948D01*
X0116462Y0075218D01*
X0116587Y0075519D01*
X011665Y0075837D01*
Y0076163D01*
X0116587Y0076481D01*
X0116462Y0076782D01*
X0116282Y0077052D01*
X0116052Y0077282D01*
X0115782Y0077462D01*
X0115481Y0077587D01*
X0115163Y007765D01*
D02*
G37*
G36*
X0029163D02*
X0028837D01*
X0028519Y0077587D01*
X0028218Y0077462D01*
X0027948Y0077282D01*
X0027718Y0077052D01*
X0027538Y0076782D01*
X0027413Y0076481D01*
X002735Y0076163D01*
Y0075837D01*
X0027413Y0075519D01*
X0027538Y0075218D01*
X0027718Y0074948D01*
X0027948Y0074718D01*
X0028218Y0074538D01*
X0028519Y0074413D01*
X0028837Y007435D01*
X0029163D01*
X0029481Y0074413D01*
X0029782Y0074538D01*
X0030052Y0074718D01*
X0030282Y0074948D01*
X0030462Y0075218D01*
X0030587Y0075519D01*
X003065Y0075837D01*
Y0076163D01*
X0030587Y0076481D01*
X0030462Y0076782D01*
X0030282Y0077052D01*
X0030052Y0077282D01*
X0029782Y0077462D01*
X0029481Y0077587D01*
X0029163Y007765D01*
D02*
G37*
G36*
X0037423Y0070654D02*
X0036821D01*
Y007055D01*
X0035625D01*
Y0070208D01*
X0035028D01*
X0034955Y0070281D01*
X003479Y007035D01*
X003461D01*
X0034445Y0070281D01*
X0034319Y0070155D01*
X003425Y006999D01*
Y006981D01*
X0034319Y0069645D01*
X0034445Y0069519D01*
X003461Y006945D01*
X003479D01*
X0034955Y0069519D01*
X0035028Y0069592D01*
X0035625D01*
Y006925D01*
X0036821D01*
Y0069146D01*
X0037423D01*
Y00699D01*
Y0070654D01*
D02*
G37*
G36*
X0038279D02*
X0037677D01*
Y0070027D01*
X0038279D01*
Y0070654D01*
D02*
G37*
G36*
Y0069773D02*
X0037677D01*
Y0069146D01*
X0038279D01*
Y0069773D01*
D02*
G37*
G36*
X003253Y006966D02*
X0031907D01*
Y0069077D01*
X0033223D01*
X0033216Y0069134D01*
X0033145Y0069305D01*
X0033032Y0069452D01*
X0032885Y0069565D01*
X0032714Y0069636D01*
X003253Y006966D01*
D02*
G37*
G36*
X0031653D02*
X003103D01*
X0030846Y0069636D01*
X0030675Y0069565D01*
X0030528Y0069452D01*
X0030415Y0069305D01*
X0030344Y0069134D01*
X0030337Y0069077D01*
X0031653D01*
Y006966D01*
D02*
G37*
G36*
X00288D02*
X0028527D01*
Y0069077D01*
X0029493D01*
X0029486Y0069134D01*
X0029415Y0069305D01*
X0029302Y0069452D01*
X0029155Y0069565D01*
X0028984Y0069636D01*
X00288Y006966D01*
D02*
G37*
G36*
X0028273D02*
X0028D01*
X0027816Y0069636D01*
X0027645Y0069565D01*
X0027498Y0069452D01*
X0027385Y0069305D01*
X0027314Y0069134D01*
X0027307Y0069077D01*
X0028273D01*
Y006966D01*
D02*
G37*
G36*
X0040871Y0069254D02*
X0040714Y006915D01*
X0040671D01*
X0039575D01*
Y0068782D01*
X00364D01*
X00364Y0068782D01*
X0036292Y0068761D01*
X00362Y00687D01*
X00362Y00687D01*
X0033683Y0066182D01*
X0033235D01*
X0033212Y0066217D01*
Y0066418D01*
X0033224Y006645D01*
X0033247Y0066485D01*
X0033318Y0066532D01*
X0033384Y0066632D01*
X0033408Y006675D01*
X0033384Y0066868D01*
X0033318Y0066968D01*
X0033303Y0066978D01*
X0033275Y006718D01*
X003331Y0067242D01*
X0033407Y0067388D01*
X0033424Y0067473D01*
X003276D01*
Y0067727D01*
X0033424D01*
X0033407Y0067812D01*
X0033287Y0067992D01*
X0033107Y0068112D01*
X0032947Y0068144D01*
X0032902Y0068284D01*
X0032905Y006835D01*
X0033032Y0068448D01*
X0033145Y0068595D01*
X0033216Y0068766D01*
X0033223Y0068823D01*
X0030337D01*
X0030344Y0068766D01*
X0030415Y0068595D01*
X0030528Y0068448D01*
X0030675Y0068335D01*
X0030846Y0068264D01*
X0030916Y0068255D01*
X0030965Y0068047D01*
X0030883Y0067992D01*
X0030763Y0067812D01*
X0030746Y0067727D01*
X003141D01*
Y0067473D01*
X0030746D01*
X0030763Y0067388D01*
X003086Y0067242D01*
X0030958Y0067067D01*
X0030861Y0066922D01*
X0030826Y006675D01*
X0030861Y0066578D01*
X0030958Y0066433D01*
Y0066217D01*
X0030861Y0066072D01*
X0030826Y00659D01*
X0030861Y0065728D01*
X0030958Y0065583D01*
Y0065367D01*
X0030861Y0065222D01*
X0030826Y006505D01*
X0030861Y0064878D01*
X0030958Y0064733D01*
Y0064517D01*
X0030861Y0064372D01*
X0030826Y00642D01*
X0030861Y0064028D01*
X0030958Y0063883D01*
Y0063823D01*
X0030772Y0063632D01*
X002945D01*
X002945Y0063632D01*
X0029342Y0063611D01*
X002925Y006355D01*
X002925Y006355D01*
X00267Y0061D01*
X0026639Y0060908D01*
X0026618Y00608D01*
X0026618Y00608D01*
Y00593D01*
X0026618Y00593D01*
X0026639Y0059192D01*
X00267Y00591D01*
X00275Y00583D01*
X0027592Y0058239D01*
X00277Y0058218D01*
X0035475D01*
Y005785D01*
X0036614D01*
X0036771Y0057746D01*
X0036882Y0057746D01*
X0037505D01*
X0037588Y0057546D01*
X0037271Y0057229D01*
X0035321D01*
X0035203Y0057205D01*
X0035103Y0057139D01*
X0033445Y0055481D01*
X0033428Y0055491D01*
X0033212Y0055549D01*
X0032988D01*
X0032772Y0055491D01*
X0032579Y0055379D01*
X0032421Y0055221D01*
X0032309Y0055028D01*
X0032251Y0054812D01*
Y0054588D01*
X0032309Y0054372D01*
X0032421Y0054179D01*
X0032579Y0054021D01*
X0032772Y0053909D01*
X0032988Y0053852D01*
X0033212D01*
X0033428Y0053909D01*
X0033621Y0054021D01*
X0033779Y0054179D01*
X0033891Y0054372D01*
X0033949Y0054588D01*
Y0054812D01*
X0033891Y0055028D01*
X0033881Y0055045D01*
X0034067Y0055231D01*
X0034251Y0055155D01*
Y0053852D01*
X0035949D01*
Y0054418D01*
X0037078D01*
X0037078Y0054418D01*
X0037186Y0054439D01*
X0037278Y00545D01*
X0038806Y0056029D01*
X0048857D01*
X0048956Y005593D01*
X0049121Y0055861D01*
X00493D01*
X0049466Y005593D01*
X0049592Y0056056D01*
X0049661Y0056222D01*
Y0056401D01*
X0049592Y0056566D01*
X0049466Y0056693D01*
X00493Y0056761D01*
X0049121D01*
X0048956Y0056693D01*
X0048857Y0056593D01*
X0038689D01*
X0038689Y0056593D01*
X0038581Y0056572D01*
X0038489Y0056511D01*
X0036961Y0054982D01*
X0035949D01*
Y0055549D01*
X0034645D01*
X0034569Y0055733D01*
X0035449Y0056613D01*
X0037398D01*
X0037516Y0056637D01*
X0037616Y0056703D01*
X0038016Y0057103D01*
X0038711D01*
X0038829Y0057127D01*
X0038929Y0057194D01*
X0039418Y0057682D01*
X0039418Y0057682D01*
X0039484Y0057782D01*
X0039508Y00579D01*
Y006D01*
X0039508Y006D01*
X0039484Y0060118D01*
X0039418Y0060218D01*
X0039418Y0060218D01*
X003715Y0062485D01*
Y006259D01*
X0037081Y0062755D01*
X0036955Y0062881D01*
X003679Y006295D01*
X003661D01*
X0036445Y0062881D01*
X0036372Y0062808D01*
X0033236D01*
X0033212Y0062835D01*
Y0063033D01*
X0033309Y0063178D01*
X0033344Y006335D01*
X0033309Y0063522D01*
X0033212Y0063667D01*
Y0063871D01*
X0033339Y006403D01*
X0035647D01*
Y0063663D01*
X0036897D01*
Y0064963D01*
X003584D01*
X0035749Y0064963D01*
X0035614Y0065129D01*
X0035617Y0065167D01*
X0035999Y006555D01*
X0036875D01*
Y006685D01*
X0035625D01*
Y0065974D01*
X0034983Y0065332D01*
X0033399D01*
X0033315Y0065532D01*
X0033398Y0065618D01*
X00338D01*
X00338Y0065618D01*
X0033908Y0065639D01*
X0034Y00657D01*
X0036517Y0068218D01*
X0039575D01*
Y006785D01*
X0040714D01*
X0040871Y0067746D01*
X0040982Y0067746D01*
X0041473D01*
Y00685D01*
Y0069254D01*
X0040982D01*
X0040871Y0069254D01*
D02*
G37*
G36*
X0066579Y0069254D02*
X0065977D01*
Y0068627D01*
X0066579D01*
Y0069254D01*
D02*
G37*
G36*
X0041727D02*
Y0068627D01*
X0042329D01*
Y0069254D01*
X0041727D01*
D02*
G37*
G36*
X0065723D02*
X0065121D01*
Y0068627D01*
X0065723D01*
Y0069254D01*
D02*
G37*
G36*
X0059579D02*
X0058977D01*
Y0068627D01*
X0059579D01*
Y0069254D01*
D02*
G37*
G36*
X0058723D02*
X0058121D01*
Y0068627D01*
X0058723D01*
Y0069254D01*
D02*
G37*
G36*
X0029493Y0068823D02*
X0028527D01*
Y006824D01*
X00288D01*
X0028984Y0068264D01*
X0029155Y0068335D01*
X0029302Y0068448D01*
X0029415Y0068595D01*
X0029486Y0068766D01*
X0029493Y0068823D01*
D02*
G37*
G36*
X0028273D02*
X0027307D01*
X0027314Y0068766D01*
X0027385Y0068595D01*
X0027498Y0068448D01*
X0027645Y0068335D01*
X0027816Y0068264D01*
X0028Y006824D01*
X0028273D01*
Y0068823D01*
D02*
G37*
G36*
X0066579Y0068373D02*
X0065977D01*
Y0067746D01*
X0066579D01*
Y0068373D01*
D02*
G37*
G36*
X0065723D02*
X0065121D01*
Y0067746D01*
X0065723D01*
Y0068373D01*
D02*
G37*
G36*
X0059579Y0068373D02*
X0058977D01*
Y0067746D01*
X0059579D01*
Y0068373D01*
D02*
G37*
G36*
X0058723D02*
X0058121D01*
Y0067746D01*
X0058723D01*
Y0068373D01*
D02*
G37*
G36*
X0042329Y0068373D02*
X0041727D01*
Y0067746D01*
X0042329D01*
Y0068373D01*
D02*
G37*
G36*
X0055779Y0067754D02*
X0055177D01*
Y0067127D01*
X0055779D01*
Y0067754D01*
D02*
G37*
G36*
X0054923D02*
X0054321D01*
Y0067127D01*
X0054923D01*
Y0067754D01*
D02*
G37*
G36*
X0068175Y006915D02*
X0066925D01*
Y006785D01*
X0067192D01*
Y0067228D01*
X0066613Y0066648D01*
X006649D01*
X0066333Y0066752D01*
X0066191Y0066752D01*
X0066015D01*
Y0065863D01*
X0065761D01*
Y0066752D01*
X0065444D01*
X0065287Y0066648D01*
X0065244D01*
X0064629Y0066648D01*
X0064548Y0066648D01*
X0063829Y0066648D01*
X0063748Y0066648D01*
X0063029Y0066648D01*
X0062948Y0066648D01*
X0062229Y0066648D01*
X0062148Y0066648D01*
X0061429Y0066648D01*
X0061348Y0066648D01*
X0060829D01*
X0060748Y0066648D01*
X0060571Y0066703D01*
Y0067001D01*
X006075Y006718D01*
X006075Y006718D01*
X0060811Y0067272D01*
X0060832Y006738D01*
Y006785D01*
X0061175D01*
Y006915D01*
X0059925D01*
Y006785D01*
X0060268D01*
Y0067497D01*
X0060089Y0067318D01*
X0060028Y0067226D01*
X0060006Y0067118D01*
X0060006Y0067118D01*
Y0066922D01*
X0059933Y0066752D01*
X0059791Y0066752D01*
X0059615D01*
Y0065863D01*
X0059361D01*
Y0066752D01*
X0059173D01*
X0059023Y0066802D01*
X0058974Y0066923D01*
X0058973Y0066929D01*
X0058906Y0067029D01*
X0058718Y0067218D01*
X0058618Y0067284D01*
X00585Y0067308D01*
X0057375D01*
Y006765D01*
X0056125D01*
Y006635D01*
X0056125D01*
X0056177Y0066225D01*
X0055802Y006585D01*
X0055698D01*
X0055532Y0065781D01*
X0055406Y0065655D01*
X0055337Y0065489D01*
Y006531D01*
X0055406Y0065145D01*
X0055443Y0065108D01*
X0055374Y0064908D01*
X005525D01*
X005525Y0064908D01*
X0055132Y0064884D01*
X0055032Y0064818D01*
X0055032Y0064818D01*
X0054765Y006455D01*
X0053925D01*
Y006325D01*
X0055175D01*
Y0063586D01*
X0055375Y006359D01*
X0055719Y0063245D01*
X0055719Y0063245D01*
X0055819Y0063179D01*
X005578Y0062982D01*
X0053667D01*
X0053579Y0063146D01*
X0053579Y0063182D01*
Y0063773D01*
X005285D01*
Y00639D01*
X0052723D01*
Y0064654D01*
X0052121D01*
Y0064389D01*
X0051921Y0064307D01*
X0051837Y006439D01*
X005165Y0064468D01*
Y0063921D01*
Y0063374D01*
X0051837Y0063451D01*
X0051921Y0063535D01*
X0052121Y0063452D01*
Y0063182D01*
X0052121Y0063146D01*
X0052033Y0062982D01*
X0045317D01*
X004405Y0064249D01*
Y006439D01*
X0043981Y0064555D01*
X0043855Y0064681D01*
X004369Y006475D01*
X004351D01*
X0043345Y0064681D01*
X0043219Y0064555D01*
X004315Y006439D01*
Y006421D01*
X0043219Y0064045D01*
X0043345Y0063919D01*
X004351Y006385D01*
X0043651D01*
X0045Y00625D01*
X0045Y00625D01*
X0045092Y0062439D01*
X00452Y0062418D01*
X0056142D01*
X0056188Y0062346D01*
X0056079Y0062146D01*
X0044554D01*
X00403Y00664D01*
X0040208Y0066461D01*
X00401Y0066482D01*
X00401Y0066482D01*
X0038375D01*
Y006685D01*
X0037125D01*
Y006555D01*
X0038375D01*
Y0065918D01*
X0039983D01*
X0044237Y0061663D01*
X0044237Y0061663D01*
X0044329Y0061602D01*
X0044437Y0061581D01*
X0044437Y0061581D01*
X0050984D01*
X0051067Y0061381D01*
X0051038Y0061351D01*
X005096Y0061164D01*
X0052054D01*
X0051977Y0061351D01*
X0051947Y0061381D01*
X005203Y0061581D01*
X0053546D01*
Y0061077D01*
X00543D01*
Y0060823D01*
X0053546D01*
Y0060232D01*
X0053546Y0060221D01*
X005365Y0060064D01*
X005365Y0060021D01*
Y0058825D01*
X005495D01*
Y0059012D01*
X0055026Y005913D01*
X0055077Y0059137D01*
X0055219Y0058956D01*
X0055219Y0058955D01*
X0055213Y0058941D01*
X005515Y005879D01*
Y005861D01*
X0055219Y0058445D01*
X0055318Y0058346D01*
X0055294Y0058218D01*
X0055257Y0058146D01*
X0052563D01*
X0052563Y0058146D01*
X0052455Y0058124D01*
X0052363Y0058063D01*
X0049083Y0054782D01*
X00381D01*
X00381Y0054782D01*
X0037992Y0054761D01*
X00379Y00547D01*
X0036183Y0052982D01*
X0035903D01*
X0035891Y0053028D01*
X0035779Y0053221D01*
X0035621Y0053379D01*
X0035428Y0053491D01*
X0035212Y0053549D01*
X0034988D01*
X0034772Y0053491D01*
X0034579Y0053379D01*
X0034421Y0053221D01*
X0034309Y0053028D01*
X0034251Y0052812D01*
Y0052588D01*
X0034309Y0052372D01*
X0034421Y0052179D01*
X0034579Y0052021D01*
X0034772Y0051909D01*
X0034988Y0051852D01*
X0035212D01*
X0035428Y0051909D01*
X0035621Y0052021D01*
X0035779Y0052179D01*
X0035891Y0052372D01*
X0035903Y0052418D01*
X00363D01*
X00363Y0052418D01*
X0036408Y0052439D01*
X00365Y00525D01*
X0038217Y0054218D01*
X00492D01*
X00492Y0054218D01*
X0049308Y0054239D01*
X00494Y00543D01*
X005145Y0056351D01*
X005165Y0056268D01*
Y005621D01*
X0051719Y0056045D01*
X0051845Y0055919D01*
X005201Y005585D01*
X005219D01*
X0052355Y0055919D01*
X0052454Y0056018D01*
X0056303D01*
Y0055923D01*
X0057873D01*
Y0056604D01*
X0057873D01*
Y0056723D01*
X0057873D01*
Y0057323D01*
X0057873Y0057523D01*
X0057873Y0057604D01*
X0057873Y0058323D01*
X0057873Y0058404D01*
Y0058923D01*
X0057873Y0059004D01*
X005799Y0059155D01*
X0058192D01*
Y00582D01*
X0058216Y0058082D01*
X0058282Y0057982D01*
X0059992Y0056272D01*
Y0055537D01*
X0059829Y0055448D01*
X0059748Y0055448D01*
X0059029Y0055448D01*
X0058948Y0055448D01*
X0058348D01*
Y0053882D01*
X0058348Y0053878D01*
X0058337Y0053682D01*
X0056217D01*
X00552Y00547D01*
X0055108Y0054761D01*
X0055Y0054782D01*
X0055Y0054782D01*
X00536D01*
X0053492Y0054761D01*
X00534Y00547D01*
X00534Y00547D01*
X0052575Y0053875D01*
X0052514Y0053783D01*
X0052493Y0053675D01*
X0052493Y0053675D01*
Y004935D01*
X005215D01*
Y0048982D01*
X004805D01*
Y004935D01*
X004455D01*
Y0048982D01*
X0043117D01*
X00412Y00509D01*
X0041108Y0050961D01*
X0041Y0050982D01*
X0041Y0050982D01*
X0035903D01*
X0035891Y0051028D01*
X0035779Y0051221D01*
X0035621Y0051379D01*
X0035428Y0051491D01*
X0035212Y0051549D01*
X0034988D01*
X0034772Y0051491D01*
X0034579Y0051379D01*
X0034421Y0051221D01*
X0034309Y0051028D01*
X0034251Y0050812D01*
X0034053Y0050814D01*
Y0050825D01*
X0033988Y0051068D01*
X0033862Y0051285D01*
X0033685Y0051462D01*
X0033468Y0051588D01*
X0033225Y0051653D01*
X0033214D01*
X0033212Y0051852D01*
X0033428Y0051909D01*
X0033621Y0052021D01*
X0033779Y0052179D01*
X0033891Y0052372D01*
X0033949Y0052588D01*
Y0052812D01*
X0033891Y0053028D01*
X0033779Y0053221D01*
X0033621Y0053379D01*
X0033428Y0053491D01*
X0033212Y0053549D01*
X0032988D01*
X0032772Y0053491D01*
X0032579Y0053379D01*
X0032421Y0053221D01*
X0032309Y0053028D01*
X0032251Y0052812D01*
Y0052588D01*
X0032309Y0052372D01*
X0032421Y0052179D01*
X0032579Y0052021D01*
X0032772Y0051909D01*
X0032988Y0051852D01*
X0032986Y0051653D01*
X0032975D01*
X0032732Y0051588D01*
X0032515Y0051462D01*
X0032338Y0051285D01*
X0032212Y0051068D01*
X0032148Y0050827D01*
X00331D01*
Y00507D01*
X0033227D01*
Y0049748D01*
X0033468Y0049812D01*
X0033685Y0049938D01*
X0033862Y0050115D01*
X0033988Y0050332D01*
X0034053Y0050575D01*
Y0050586D01*
X0034251Y0050588D01*
X0034309Y0050372D01*
X0034421Y0050179D01*
X0034579Y0050021D01*
X0034772Y0049909D01*
X0034988Y0049852D01*
X0035212D01*
X0035428Y0049909D01*
X0035621Y0050021D01*
X0035779Y0050179D01*
X0035891Y0050372D01*
X0035903Y0050418D01*
X0040883D01*
X00428Y00485D01*
X00428Y00485D01*
X0042892Y0048439D01*
X0043Y0048418D01*
X0043Y0048418D01*
X004455D01*
Y004805D01*
X004805D01*
Y0048418D01*
X005215D01*
Y004805D01*
X00534D01*
Y004935D01*
X0053057D01*
Y0053558D01*
X0053717Y0054218D01*
X0053962D01*
X0054002Y0054018D01*
X0053886Y005397D01*
X005373Y0053814D01*
X0053653Y0053627D01*
X0054747D01*
X005467Y0053814D01*
X0054514Y005397D01*
X0054398Y0054018D01*
X0054438Y0054218D01*
X0054883D01*
X00559Y00532D01*
X0055992Y0053139D01*
X00561Y0053118D01*
X00561Y0053118D01*
X00594D01*
X00594Y0053118D01*
X0059508Y0053139D01*
X00596Y00532D01*
X0059688Y0053289D01*
X0059688Y0053289D01*
X0059749Y005338D01*
X0059771Y0053488D01*
X0059771Y0053488D01*
Y0053651D01*
X0059798Y0053664D01*
X0059981Y0053551D01*
Y0053216D01*
X0059072Y0052308D01*
X0056475D01*
Y005265D01*
X0055225D01*
Y005135D01*
X0055542D01*
Y0050453D01*
X005444Y004935D01*
X00536D01*
Y004805D01*
X005485D01*
Y004889D01*
X0056068Y0050107D01*
X0056068Y0050107D01*
X0056134Y0050207D01*
X0056158Y0050325D01*
X0056158Y0050325D01*
Y005135D01*
X0056475D01*
Y0051692D01*
X00592D01*
X005925Y0051702D01*
X0059417Y0051602D01*
X005945Y0051563D01*
Y0050782D01*
X005885D01*
Y0051125D01*
X005755D01*
Y0049929D01*
X005755Y0049886D01*
X0057446Y0049729D01*
X0057446Y0049718D01*
Y0049127D01*
X00582D01*
X0058954D01*
Y0049718D01*
X0058954Y0049729D01*
X005885Y0049886D01*
X005885Y0049929D01*
Y0050218D01*
X005945D01*
Y004915D01*
X006215D01*
Y005185D01*
X0061511D01*
X0061434Y0052035D01*
X00621Y00527D01*
X0062161Y0052792D01*
X0062182Y00529D01*
X0062182Y00529D01*
Y005359D01*
X006234Y0053682D01*
X0062406Y0053645D01*
Y0052912D01*
X0062406Y0052912D01*
X0062428Y0052803D01*
X0062489Y0052712D01*
X00631Y00521D01*
X0063192Y0052039D01*
X00633Y0052018D01*
X00633Y0052018D01*
X0063972D01*
X006405Y005185D01*
Y004915D01*
X006675D01*
Y0050218D01*
X0067509D01*
X006765Y0050076D01*
X006765Y0049886D01*
X0067546Y0049729D01*
X0067546Y0049718D01*
Y0049127D01*
X00683D01*
X0069054D01*
Y0049718D01*
X0069054Y0049729D01*
X006895Y0049886D01*
X006895Y0049929D01*
Y0051125D01*
X006765D01*
Y0050782D01*
X006675D01*
Y0051452D01*
X006695Y0051575D01*
X006701Y005155D01*
X006719D01*
X0067355Y0051619D01*
X0067481Y0051745D01*
X006755Y005191D01*
Y0051968D01*
X006775Y0052051D01*
X0068157Y0051643D01*
X0068206Y0051526D01*
X0068332Y00514D01*
X0068498Y0051331D01*
X0068677D01*
X0068842Y00514D01*
X0068969Y0051526D01*
X0069037Y0051692D01*
Y0051871D01*
X0068969Y0052036D01*
X0068842Y0052163D01*
X0068677Y0052231D01*
X0068498D01*
X0068406Y0052193D01*
X0068082Y0052518D01*
X0068165Y0052718D01*
X0068546D01*
X0068645Y0052619D01*
X006881Y005255D01*
X006899D01*
X0069155Y0052619D01*
X0069281Y0052745D01*
X006935Y005291D01*
Y005309D01*
X0069281Y0053255D01*
X0069155Y0053381D01*
X006899Y005345D01*
X006881D01*
X0068645Y0053381D01*
X0068546Y0053282D01*
X0068168D01*
X0067646Y0053804D01*
X0067555Y0053865D01*
X0067447Y0053886D01*
X0067447Y0053886D01*
X0067029D01*
Y0055448D01*
X0066429D01*
X0066229Y0055448D01*
X0066148Y0055448D01*
X0065429Y0055448D01*
X0065348Y0055448D01*
X0064748D01*
Y0055448D01*
X0064629D01*
Y0055448D01*
X0063948D01*
Y0055448D01*
X0063829D01*
Y0055448D01*
X0063148D01*
Y0055448D01*
X0063029D01*
Y0055448D01*
X0062429D01*
X0062229Y0055448D01*
X0062148Y0055448D01*
X006169D01*
X0061533Y0055552D01*
X0061391Y0055552D01*
X0061215D01*
Y0054663D01*
Y0053774D01*
X0061533D01*
X0061618Y0053609D01*
Y0053017D01*
X00606Y0052D01*
X0060539Y0051908D01*
X0060528Y005185D01*
X0059747D01*
X005967Y0052035D01*
X0060506Y0052871D01*
X0060573Y0052971D01*
X0060596Y0053088D01*
Y0053594D01*
X0060644Y0053774D01*
X0060786Y0053774D01*
X0060961D01*
Y0054663D01*
Y0055552D01*
X0060644Y0055552D01*
X0060608Y0055737D01*
Y0056092D01*
X00608D01*
X0060918Y0056116D01*
X0061018Y0056182D01*
X0061591Y0056755D01*
X0067219D01*
X0067399Y0056708D01*
X0067399Y0056566D01*
Y005639D01*
X0068288D01*
X0069177D01*
Y0056555D01*
X0069177Y0056708D01*
X0069358Y0056755D01*
X007055D01*
Y0056375D01*
X007185D01*
Y0056692D01*
X0072472D01*
X0073592Y0055572D01*
Y005505D01*
X0073D01*
Y005275D01*
X00748D01*
Y005505D01*
X0074208D01*
Y00557D01*
X0074184Y0055818D01*
X0074118Y0055918D01*
X0072818Y0057218D01*
X0072718Y0057284D01*
X00726Y0057308D01*
X007185D01*
Y0057625D01*
X007055D01*
Y0057371D01*
X0069401D01*
X0069287Y0057554D01*
X00693Y0057581D01*
X0069363D01*
X0069363Y0057581D01*
X0069471Y0057602D01*
X0069563Y0057663D01*
X0071349Y005945D01*
X007149D01*
X0071655Y0059519D01*
X0071781Y0059645D01*
X007185Y005981D01*
Y005999D01*
X0071781Y0060155D01*
X0071655Y0060281D01*
X007149Y006035D01*
X007131D01*
X0071145Y0060281D01*
X0071019Y0060155D01*
X007095Y005999D01*
Y0059849D01*
X0069298Y0058197D01*
X00691Y0058237D01*
X0069073Y0058323D01*
X0069073Y0058404D01*
X0069073Y0059123D01*
X0069073Y0059204D01*
X0069073Y0059923D01*
X0069073Y0060004D01*
X0069073Y0060723D01*
X0069073Y0060804D01*
X0069073Y0061523D01*
X0069073Y0061604D01*
Y0062123D01*
X0069073Y0062204D01*
X0069129Y0062381D01*
X0070975D01*
Y006205D01*
X0072225D01*
Y006335D01*
X0070975D01*
Y0062946D01*
X0069129D01*
X0069073Y0063123D01*
X0069073Y0063204D01*
X0069073Y0063923D01*
X0069073Y0064004D01*
Y0064604D01*
X0067503D01*
Y0064004D01*
X0067503Y0063804D01*
X0067503Y0063723D01*
X0067503Y0063004D01*
X0067503Y0062923D01*
X0067503Y0062204D01*
X0067503Y0062123D01*
X0067503Y0061404D01*
X0067503Y0061323D01*
X0067503Y0060604D01*
X0067503Y0060523D01*
X0067503Y0059804D01*
X0067503Y0059723D01*
X0067503Y0059004D01*
X0067503Y0058923D01*
X0067503Y0058204D01*
X0067503Y0058123D01*
Y0057604D01*
X0067503Y0057523D01*
X0067387Y0057371D01*
X0061463D01*
X0061345Y0057348D01*
X0061245Y0057281D01*
X0060672Y0056708D01*
X0060428D01*
X0058808Y0058328D01*
Y00595D01*
Y00631D01*
X0058784Y0063218D01*
X0058718Y0063318D01*
X0058355Y0063681D01*
X0058255Y0063748D01*
X0058137Y0063771D01*
X005799D01*
X0057873Y0063923D01*
X0057873Y0064004D01*
Y0064604D01*
X0056484D01*
X0056308Y0064604D01*
X0056303Y0064604D01*
X0056163Y0064611D01*
X0056108Y0064741D01*
Y0065084D01*
X0056169Y0065145D01*
X0056237Y006531D01*
Y0065414D01*
X0056968Y0066145D01*
X0057034Y0066245D01*
X0057055Y006635D01*
X0057375D01*
Y0066692D01*
X0058166D01*
X0058348Y0066648D01*
Y0065078D01*
X0058381D01*
Y0064812D01*
X0058404Y0064694D01*
X0058471Y0064594D01*
X0058782Y0064282D01*
X0058782Y0064282D01*
X0058882Y0064216D01*
X0059Y0064192D01*
X0059Y0064192D01*
X00665D01*
X0066618Y0064216D01*
X0066718Y0064282D01*
X0066906Y0064471D01*
X0066906Y0064471D01*
X0066973Y0064571D01*
X0066996Y0064688D01*
X0066996Y0064688D01*
Y0065078D01*
X0067029D01*
Y0066193D01*
X0067718Y0066882D01*
X0067718Y0066882D01*
X0067784Y0066982D01*
X0067808Y00671D01*
X0067808Y00671D01*
Y006785D01*
X0068175D01*
Y006915D01*
D02*
G37*
G36*
X0055779Y0066873D02*
X0055177D01*
Y0066246D01*
X0055779D01*
Y0066873D01*
D02*
G37*
G36*
X0054923D02*
X0054321D01*
Y0066246D01*
X0054923D01*
Y0066873D01*
D02*
G37*
G36*
X0051396Y0064468D02*
X0051209Y006439D01*
X0051054Y0064235D01*
X0050976Y0064048D01*
X0051396D01*
Y0064468D01*
D02*
G37*
G36*
X0053579Y0064654D02*
X0052977D01*
Y0064027D01*
X0053579D01*
Y0064654D01*
D02*
G37*
G36*
X0038397Y0064963D02*
X0037147D01*
Y0063663D01*
X0038397D01*
Y006403D01*
X0040176D01*
X0040295Y0063911D01*
X0040461Y0063843D01*
X004064D01*
X0040805Y0063911D01*
X0040932Y0064038D01*
X0041Y0064203D01*
Y0064382D01*
X0040932Y0064548D01*
X0040805Y0064674D01*
X004064Y0064743D01*
X0040461D01*
X0040295Y0064674D01*
X0040216Y0064595D01*
X0038397D01*
Y0064963D01*
D02*
G37*
G36*
X0051396Y0063794D02*
X0050976D01*
X0051054Y0063607D01*
X0051209Y0063451D01*
X0051396Y0063374D01*
Y0063794D01*
D02*
G37*
G36*
X00871Y0063282D02*
X00871Y0063282D01*
X00826D01*
X00826Y0063282D01*
X0082492Y0063261D01*
X00824Y00632D01*
X00824Y00632D01*
X007936Y006016D01*
X0075035D01*
X0074936Y0060259D01*
X007477Y0060327D01*
X0074591D01*
X0074426Y0060259D01*
X0074299Y0060132D01*
X0074231Y0059967D01*
Y0059788D01*
X0074299Y0059622D01*
X0074426Y0059496D01*
X0074591Y0059427D01*
X007477D01*
X0074936Y0059496D01*
X0075035Y0059595D01*
X0079477D01*
X0079477Y0059595D01*
X0079585Y0059616D01*
X0079677Y0059678D01*
X0082717Y0062718D01*
X0086983D01*
X00888Y00609D01*
X0088892Y0060839D01*
X0089Y0060818D01*
X0089Y0060818D01*
X0104435D01*
X0104517Y006071D01*
Y006037D01*
X0104605Y0060041D01*
X0104775Y0059746D01*
X0105016Y0059505D01*
X0105311Y0059335D01*
X010564Y0059247D01*
X010598D01*
X0106309Y0059335D01*
X0106604Y0059505D01*
X0106845Y0059746D01*
X0107015Y0060041D01*
X0107103Y006037D01*
Y006071D01*
X0107015Y0061039D01*
X0106845Y0061334D01*
X0106604Y0061575D01*
X0106309Y0061745D01*
X010598Y0061833D01*
X010564D01*
X0105311Y0061745D01*
X0105016Y0061575D01*
X0104824Y0061382D01*
X0089117D01*
X00873Y00632D01*
X0087208Y0063261D01*
X00871Y0063282D01*
D02*
G37*
G36*
X0079584Y0064497D02*
X0079527D01*
Y0063227D01*
X0080797D01*
Y0063284D01*
X0080702Y0063639D01*
X0080518Y0063958D01*
X0080258Y0064218D01*
X0079939Y0064402D01*
X0079584Y0064497D01*
D02*
G37*
G36*
X0079273D02*
X0079216D01*
X0078861Y0064402D01*
X0078542Y0064218D01*
X0078282Y0063958D01*
X0078098Y0063639D01*
X0078003Y0063284D01*
Y0063227D01*
X0079273D01*
Y0064497D01*
D02*
G37*
G36*
X0099644Y0064477D02*
X0099587D01*
Y0063207D01*
X0100857D01*
Y0063264D01*
X0100762Y0063619D01*
X0100578Y0063938D01*
X0100318Y0064198D01*
X0099999Y0064382D01*
X0099644Y0064477D01*
D02*
G37*
G36*
X0099333D02*
X0099276D01*
X0098921Y0064382D01*
X0098602Y0064198D01*
X0098342Y0063938D01*
X0098158Y0063619D01*
X0098063Y0063264D01*
Y0063207D01*
X0099333D01*
Y0064477D01*
D02*
G37*
G36*
X0080797Y0062973D02*
X0079527D01*
Y0061703D01*
X0079584D01*
X0079939Y0061798D01*
X0080258Y0061982D01*
X0080518Y0062242D01*
X0080702Y0062561D01*
X0080797Y0062916D01*
Y0062973D01*
D02*
G37*
G36*
X0079273D02*
X0078003D01*
Y0062916D01*
X0078098Y0062561D01*
X0078282Y0062242D01*
X0078542Y0061982D01*
X0078861Y0061798D01*
X0079216Y0061703D01*
X0079273D01*
Y0062973D01*
D02*
G37*
G36*
X0100857Y0062953D02*
X0099587D01*
Y0061683D01*
X0099644D01*
X0099999Y0061778D01*
X0100318Y0061962D01*
X0100578Y0062222D01*
X0100762Y0062541D01*
X0100857Y0062896D01*
Y0062953D01*
D02*
G37*
G36*
X0099333D02*
X0098063D01*
Y0062896D01*
X0098158Y0062541D01*
X0098342Y0062222D01*
X0098602Y0061962D01*
X0098921Y0061778D01*
X0099276Y0061683D01*
X0099333D01*
Y0062953D01*
D02*
G37*
G36*
X0052054Y006091D02*
X0051634D01*
Y006049D01*
X0051821Y0060568D01*
X0051977Y0060723D01*
X0052054Y006091D01*
D02*
G37*
G36*
X005138D02*
X005096D01*
X0051038Y0060723D01*
X0051193Y0060568D01*
X005138Y006049D01*
Y006091D01*
D02*
G37*
G36*
X0087152Y0059021D02*
X0086888D01*
X0086634Y0058953D01*
X0086405Y0058821D01*
X0086219Y0058635D01*
X0086087Y0058406D01*
X0086019Y0058152D01*
Y0057888D01*
X0086087Y0057634D01*
X0086219Y0057405D01*
X0086405Y0057219D01*
X0086634Y0057087D01*
X0086888Y0057019D01*
X0087152D01*
X0087406Y0057087D01*
X0087635Y0057219D01*
X0087821Y0057405D01*
X0087953Y0057634D01*
X0088021Y0057888D01*
Y0058152D01*
X0087953Y0058406D01*
X0087821Y0058635D01*
X0087635Y0058821D01*
X0087406Y0058953D01*
X0087152Y0059021D01*
D02*
G37*
G36*
X0076992D02*
X0076728D01*
X0076474Y0058953D01*
X0076245Y0058821D01*
X0076059Y0058635D01*
X0075927Y0058406D01*
X0075859Y0058152D01*
Y0057888D01*
X0075927Y0057634D01*
X0076059Y0057405D01*
X0076245Y0057219D01*
X0076474Y0057087D01*
X0076728Y0057019D01*
X0076992D01*
X0077246Y0057087D01*
X0077475Y0057219D01*
X0077661Y0057405D01*
X0077793Y0057634D01*
X0077861Y0057888D01*
Y0058152D01*
X0077793Y0058406D01*
X0077661Y0058635D01*
X0077475Y0058821D01*
X0077246Y0058953D01*
X0076992Y0059021D01*
D02*
G37*
G36*
X0107212Y0059001D02*
X0106948D01*
X0106694Y0058933D01*
X0106465Y0058801D01*
X0106279Y0058615D01*
X0106147Y0058386D01*
X0106079Y0058132D01*
Y0057868D01*
X0106147Y0057614D01*
X0106279Y0057385D01*
X0106465Y0057199D01*
X0106694Y0057067D01*
X0106948Y0056999D01*
X0107212D01*
X0107466Y0057067D01*
X0107695Y0057199D01*
X0107881Y0057385D01*
X0108013Y0057614D01*
X0108081Y0057868D01*
Y0058132D01*
X0108013Y0058386D01*
X0107881Y0058615D01*
X0107695Y0058801D01*
X0107466Y0058933D01*
X0107212Y0059001D01*
D02*
G37*
G36*
X0097052D02*
X0096788D01*
X0096534Y0058933D01*
X0096305Y0058801D01*
X0096119Y0058615D01*
X0095987Y0058386D01*
X0095919Y0058132D01*
Y0057868D01*
X0095987Y0057614D01*
X0096119Y0057385D01*
X0096305Y0057199D01*
X0096534Y0057067D01*
X0096788Y0056999D01*
X0097052D01*
X0097306Y0057067D01*
X0097535Y0057199D01*
X0097721Y0057385D01*
X0097853Y0057614D01*
X0097921Y0057868D01*
Y0058132D01*
X0097853Y0058386D01*
X0097721Y0058615D01*
X0097535Y0058801D01*
X0097306Y0058933D01*
X0097052Y0059001D01*
D02*
G37*
G36*
X0082151Y0060164D02*
X0081729D01*
X0081315Y0060082D01*
X0080924Y005992D01*
X0080573Y0059685D01*
X0080275Y0059387D01*
X008004Y0059036D01*
X0079878Y0058645D01*
X0079796Y0058231D01*
Y0057809D01*
X0079878Y0057395D01*
X008004Y0057004D01*
X0080275Y0056653D01*
X0080573Y0056355D01*
X0080924Y005612D01*
X0081315Y0055958D01*
X0081729Y0055876D01*
X0082151D01*
X0082565Y0055958D01*
X0082956Y005612D01*
X0083307Y0056355D01*
X0083605Y0056653D01*
X008384Y0057004D01*
X0084002Y0057395D01*
X0084084Y0057809D01*
Y0058231D01*
X0084002Y0058645D01*
X008384Y0059036D01*
X0083605Y0059387D01*
X0083307Y0059685D01*
X0082956Y005992D01*
X0082565Y0060082D01*
X0082151Y0060164D01*
D02*
G37*
G36*
X0102211Y0060144D02*
X0101789D01*
X0101375Y0060062D01*
X0100984Y00599D01*
X0100633Y0059665D01*
X0100335Y0059367D01*
X01001Y0059016D01*
X0099938Y0058625D01*
X0099856Y0058211D01*
Y0057789D01*
X0099938Y0057375D01*
X01001Y0056984D01*
X0100335Y0056633D01*
X0100633Y0056335D01*
X0100984Y00561D01*
X0101375Y0055938D01*
X0101789Y0055856D01*
X0102211D01*
X0102625Y0055938D01*
X0103016Y00561D01*
X0103367Y0056335D01*
X0103665Y0056633D01*
X01039Y0056984D01*
X0104062Y0057375D01*
X0104144Y0057789D01*
Y0058211D01*
X0104062Y0058625D01*
X01039Y0059016D01*
X0103665Y0059367D01*
X0103367Y0059665D01*
X0103016Y00599D01*
X0102625Y0060062D01*
X0102211Y0060144D01*
D02*
G37*
G36*
X0069177Y0056136D02*
X0068415D01*
Y0055819D01*
X0069177D01*
Y0056136D01*
D02*
G37*
G36*
X0068161D02*
X0067399D01*
Y0055819D01*
X0068161D01*
Y0056136D01*
D02*
G37*
G36*
X0071954Y0056029D02*
X0071327D01*
Y0055427D01*
X0071954D01*
Y0056029D01*
D02*
G37*
G36*
X0071073D02*
X0070446D01*
Y0055427D01*
X0071073D01*
Y0056029D01*
D02*
G37*
G36*
X0071954Y0055173D02*
X0071327D01*
Y0054571D01*
X0071954D01*
Y0055173D01*
D02*
G37*
G36*
X0071073D02*
X0070446D01*
Y0054571D01*
X0071073D01*
Y0055173D01*
D02*
G37*
G36*
X0071827Y0054147D02*
Y0053727D01*
X0072247D01*
X007217Y0053914D01*
X0072014Y005407D01*
X0071827Y0054147D01*
D02*
G37*
G36*
X0071573D02*
X0071386Y005407D01*
X007123Y0053914D01*
X0071153Y0053727D01*
X0071573D01*
Y0054147D01*
D02*
G37*
G36*
X0072247Y0053473D02*
X0071827D01*
Y0053053D01*
X0072014Y005313D01*
X007217Y0053286D01*
X0072247Y0053473D01*
D02*
G37*
G36*
X0071573D02*
X0071153D01*
X007123Y0053286D01*
X0071386Y005313D01*
X0071573Y0053053D01*
Y0053473D01*
D02*
G37*
G36*
X0073725Y006335D02*
X0072475D01*
Y006205D01*
X0072818D01*
Y00581D01*
X0072818Y00581D01*
X0072839Y0057992D01*
X00729Y00579D01*
X00752Y00556D01*
X0075292Y0055539D01*
X00754Y0055518D01*
X00754Y0055518D01*
X0077583D01*
X0077866Y0055235D01*
X0077789Y005505D01*
X00776D01*
Y005275D01*
X00794D01*
Y005505D01*
X0078772D01*
X0078761Y0055108D01*
X00787Y00552D01*
X00779Y0056D01*
X0077808Y0056061D01*
X00777Y0056082D01*
X00777Y0056082D01*
X0075517D01*
X0073382Y0058217D01*
Y006205D01*
X0073725D01*
Y006335D01*
D02*
G37*
G36*
X0054747Y0053373D02*
X0053653D01*
X005373Y0053186D01*
X0053886Y005303D01*
X005409Y0052946D01*
X005407Y0052754D01*
X0053421D01*
Y0052127D01*
X005415D01*
X0054879D01*
Y0052754D01*
X005433D01*
X005431Y0052946D01*
X0054514Y005303D01*
X005467Y0053186D01*
X0054747Y0053373D01*
D02*
G37*
G36*
X004805Y005335D02*
X004455D01*
Y005205D01*
X004805D01*
Y005335D01*
D02*
G37*
G36*
X004125D02*
X003775D01*
Y005205D01*
X004125D01*
Y005335D01*
D02*
G37*
G36*
X008592Y0061853D02*
X008558D01*
X0085251Y0061765D01*
X0084956Y0061595D01*
X0084715Y0061354D01*
X0084545Y0061059D01*
X0084457Y006073D01*
Y006039D01*
X0084545Y0060061D01*
X0084715Y0059766D01*
X0084956Y0059525D01*
X0085251Y0059355D01*
X0085268Y005935D01*
X0085328Y0059127D01*
X00849Y00587D01*
X0084839Y0058608D01*
X0084818Y00585D01*
X0084818Y00585D01*
Y0056317D01*
X0080183Y0051682D01*
X0077954D01*
X0077855Y0051781D01*
X007769Y005185D01*
X007751D01*
X0077345Y0051781D01*
X0077219Y0051655D01*
X007715Y005149D01*
Y005131D01*
X0077219Y0051145D01*
X0077345Y0051019D01*
X007751Y005095D01*
X007769D01*
X0077855Y0051019D01*
X0077954Y0051118D01*
X00803D01*
X00803Y0051118D01*
X0080408Y0051139D01*
X00805Y00512D01*
X00853Y0056D01*
X0085361Y0056092D01*
X0085382Y00562D01*
X0085382Y00562D01*
Y0058383D01*
X008595Y005895D01*
X008595Y005895D01*
X0086011Y0059042D01*
X0086032Y005915D01*
Y0059297D01*
X0086249Y0059355D01*
X0086544Y0059525D01*
X0086785Y0059766D01*
X0086955Y0060061D01*
X0087043Y006039D01*
Y006073D01*
X0086955Y0061059D01*
X0086785Y0061354D01*
X0086544Y0061595D01*
X0086249Y0061765D01*
X008592Y0061853D01*
D02*
G37*
G36*
X0054879Y0051873D02*
X0054277D01*
Y0051246D01*
X0054879D01*
Y0051873D01*
D02*
G37*
G36*
X0054023D02*
X0053421D01*
Y0051246D01*
X0054023D01*
Y0051873D01*
D02*
G37*
G36*
X0032973Y0050573D02*
X0032148D01*
X0032212Y0050332D01*
X0032338Y0050115D01*
X0032515Y0049938D01*
X0032732Y0049812D01*
X0032973Y0049748D01*
Y0050573D01*
D02*
G37*
G36*
X0041354Y0049454D02*
X0039627D01*
Y0048827D01*
X0041354D01*
Y0049454D01*
D02*
G37*
G36*
X0039373D02*
X0037646D01*
Y0048827D01*
X0039373D01*
Y0049454D01*
D02*
G37*
G36*
X0069054Y0048873D02*
X0068427D01*
Y0048271D01*
X0069054D01*
Y0048873D01*
D02*
G37*
G36*
X0068173D02*
X0067546D01*
Y0048271D01*
X0068173D01*
Y0048873D01*
D02*
G37*
G36*
X0058073D02*
X0057446D01*
Y0048271D01*
X0058073D01*
Y0048873D01*
D02*
G37*
G36*
X0059627Y0048647D02*
Y0048227D01*
X0060047D01*
X005997Y0048414D01*
X0059814Y004857D01*
X0059627Y0048647D01*
D02*
G37*
G36*
X0058954Y0048873D02*
X0058327D01*
Y0048271D01*
X0058761D01*
X0058895Y0048227D01*
X0059373D01*
Y0048647D01*
X0059186Y004857D01*
X0059154Y0048537D01*
X0058954Y004862D01*
Y0048873D01*
D02*
G37*
G36*
X0041354Y0048573D02*
X0039627D01*
Y0047946D01*
X0041354D01*
Y0048573D01*
D02*
G37*
G36*
X0039373D02*
X0037646D01*
Y0047946D01*
X0039373D01*
Y0048573D01*
D02*
G37*
G36*
X0060047Y0047973D02*
X0059627D01*
Y0047553D01*
X0059814Y004763D01*
X005997Y0047786D01*
X0060047Y0047973D01*
D02*
G37*
G36*
X0059373D02*
X0058953D01*
X005903Y0047786D01*
X0059186Y004763D01*
X0059373Y0047553D01*
Y0047973D01*
D02*
G37*
G36*
X00771Y005505D02*
X00753D01*
Y005275D01*
X0075918D01*
Y004875D01*
X007415D01*
Y0047282D01*
X007105D01*
Y0047625D01*
X006975D01*
Y0047282D01*
X005035D01*
Y0047625D01*
X004905D01*
Y0046425D01*
X004905Y0046375D01*
Y0046225D01*
X004905Y0046175D01*
Y0044975D01*
X0049418D01*
Y0037717D01*
X0045051Y003335D01*
X004491D01*
X0044745Y0033281D01*
X0044619Y0033155D01*
X004455Y003299D01*
Y003281D01*
X0044619Y0032645D01*
X0044745Y0032519D01*
X004491Y003245D01*
X004509D01*
X0045255Y0032519D01*
X0045381Y0032645D01*
X004545Y003281D01*
Y0032951D01*
X00499Y00374D01*
X00499Y00374D01*
X0049961Y0037492D01*
X0049982Y00376D01*
Y0044975D01*
X005035D01*
Y0046175D01*
X005035Y0046225D01*
Y0046375D01*
X005035Y0046425D01*
Y0046718D01*
X006975D01*
Y0046425D01*
X006975Y0046375D01*
Y0046225D01*
X006975Y0046175D01*
Y0044975D01*
X0070118D01*
Y0038417D01*
X0065151Y003345D01*
X006501D01*
X0064845Y0033381D01*
X0064719Y0033255D01*
X006465Y003309D01*
Y003291D01*
X0064719Y0032745D01*
X0064845Y0032619D01*
X006501Y003255D01*
X006519D01*
X0065355Y0032619D01*
X0065481Y0032745D01*
X006555Y003291D01*
Y0033051D01*
X00706Y00381D01*
X00706Y00381D01*
X0070661Y0038192D01*
X0070682Y00383D01*
X0070682Y00383D01*
Y0044975D01*
X007105D01*
Y0046175D01*
X007105Y0046225D01*
Y0046375D01*
X007105Y0046425D01*
Y0046718D01*
X0072892D01*
X0072932Y0046518D01*
X0072845Y0046481D01*
X0072719Y0046355D01*
X007265Y004619D01*
Y004601D01*
X0072719Y0045845D01*
X0072845Y0045719D01*
X007301Y004565D01*
X007303D01*
X0073077Y0045582D01*
X0072973Y0045382D01*
X0072317D01*
X007215Y0045549D01*
Y004569D01*
X0072081Y0045855D01*
X0071955Y0045981D01*
X007179Y004605D01*
X007161D01*
X0071445Y0045981D01*
X0071319Y0045855D01*
X007125Y004569D01*
Y004551D01*
X0071319Y0045345D01*
X0071445Y0045219D01*
X007161Y004515D01*
X0071751D01*
X0072Y00449D01*
X0072Y00449D01*
X0072092Y0044839D01*
X00722Y0044818D01*
X0081133D01*
X0084717Y0041233D01*
X0084605Y0041039D01*
X0084517Y004071D01*
Y004037D01*
X0084605Y0040041D01*
X0084775Y0039746D01*
X0085016Y0039505D01*
X0085311Y0039335D01*
X008564Y0039247D01*
X008598D01*
X0086309Y0039335D01*
X0086604Y0039505D01*
X0086845Y0039746D01*
X0087015Y0040041D01*
X0087103Y004037D01*
Y004071D01*
X0087015Y0041039D01*
X0086845Y0041334D01*
X0086604Y0041575D01*
X0086309Y0041745D01*
X008598Y0041833D01*
X008564D01*
X0085311Y0041745D01*
X0085117Y0041633D01*
X0081582Y0045168D01*
X0081665Y0045368D01*
X0082133D01*
X00844Y00431D01*
X0084492Y0043039D01*
X00846Y0043018D01*
X0085983D01*
X0087418Y0041583D01*
Y00401D01*
X0087418Y00401D01*
X0087439Y0039992D01*
X00875Y00399D01*
X00878Y00396D01*
X00878Y00396D01*
X0087892Y0039539D01*
X0088Y0039518D01*
X0088Y0039518D01*
X00899D01*
X00899Y0039518D01*
X0090008Y0039539D01*
X00901Y00396D01*
X0090757Y0040258D01*
X0101335D01*
X0101375Y0040062D01*
X0100984Y00399D01*
X0100633Y0039665D01*
X0100335Y0039367D01*
X01001Y0039016D01*
X0099938Y0038625D01*
X0099856Y0038211D01*
Y0037789D01*
X0099938Y0037375D01*
X01001Y0036984D01*
X0100335Y0036633D01*
X0100633Y0036335D01*
X0100984Y00361D01*
X0101375Y0035938D01*
X0101789Y0035856D01*
X0102211D01*
X0102625Y0035938D01*
X0103016Y00361D01*
X0103367Y0036335D01*
X0103665Y0036633D01*
X01039Y0036984D01*
X0104062Y0037375D01*
X0104144Y0037789D01*
Y0038211D01*
X0104062Y0038625D01*
X01039Y0039016D01*
X0103665Y0039367D01*
X0103367Y0039665D01*
X0103016Y00399D01*
X0102625Y0040062D01*
X0102665Y0040258D01*
X0104547D01*
X0104605Y0040041D01*
X0104775Y0039746D01*
X0105016Y0039505D01*
X0105311Y0039335D01*
X010564Y0039247D01*
X010598D01*
X0106309Y0039335D01*
X0106604Y0039505D01*
X0106845Y0039746D01*
X0107015Y0040041D01*
X0107103Y004037D01*
Y004071D01*
X0107015Y0041039D01*
X0106845Y0041334D01*
X0106604Y0041575D01*
X0106309Y0041745D01*
X010598Y0041833D01*
X010564D01*
X0105311Y0041745D01*
X0105016Y0041575D01*
X0104775Y0041334D01*
X0104605Y0041039D01*
X0104547Y0040822D01*
X009064D01*
X009064Y0040822D01*
X0090532Y0040801D01*
X009044Y004074D01*
X009044Y004074D01*
X0089783Y0040082D01*
X0088117D01*
X0087982Y0040217D01*
Y00417D01*
X0087982Y00417D01*
X0087961Y0041808D01*
X00879Y00419D01*
X00879Y00419D01*
X00863Y00435D01*
X0086208Y0043561D01*
X00861Y0043582D01*
X00861Y0043582D01*
X0084717D01*
X008245Y004585D01*
X0082358Y0045911D01*
X008225Y0045932D01*
X008225Y0045932D01*
X0073667D01*
X007355Y0046049D01*
Y004619D01*
X0073481Y0046355D01*
X0073355Y0046481D01*
X0073268Y0046518D01*
X0073308Y0046718D01*
X007415D01*
Y004645D01*
X007825D01*
Y0047418D01*
X008205D01*
Y0047075D01*
X008335D01*
Y0047418D01*
X008905D01*
Y0047125D01*
X008905Y0047075D01*
Y0046925D01*
X008905Y0046875D01*
Y0045675D01*
X0089418D01*
Y0042517D01*
X00888Y00419D01*
X0088739Y0041808D01*
X0088718Y00417D01*
X0088718Y00417D01*
Y0041154D01*
X0088619Y0041055D01*
X008855Y004089D01*
Y004071D01*
X0088619Y0040545D01*
X0088745Y0040419D01*
X008891Y004035D01*
X008909D01*
X0089255Y0040419D01*
X0089381Y0040545D01*
X008945Y004071D01*
Y004089D01*
X0089381Y0041055D01*
X0089282Y0041154D01*
Y0041583D01*
X00899Y00422D01*
X00899Y00422D01*
X0089961Y0042292D01*
X0089982Y00424D01*
X0089982Y00424D01*
Y0045675D01*
X009035D01*
Y0046875D01*
X009035Y0046925D01*
Y0047075D01*
X009035Y0047125D01*
Y0047418D01*
X010215D01*
Y0047075D01*
X010345D01*
Y0047418D01*
X010855D01*
Y0047125D01*
X010855Y0047075D01*
Y0046925D01*
X010855Y0046875D01*
Y0045675D01*
X0108918D01*
Y0037358D01*
X0104828Y0033269D01*
X0104688D01*
X0104523Y00332D01*
X0104396Y0033074D01*
X0104328Y0032908D01*
Y0032729D01*
X0104396Y0032564D01*
X0104523Y0032437D01*
X0104688Y0032369D01*
X0104867D01*
X0105033Y0032437D01*
X0105159Y0032564D01*
X0105228Y0032729D01*
Y0032869D01*
X01094Y0037041D01*
X01094Y0037041D01*
X0109461Y0037133D01*
X0109482Y0037241D01*
X0109482Y0037241D01*
Y0045675D01*
X010985D01*
Y0046875D01*
X010985Y0046925D01*
Y0047075D01*
X010985Y0047125D01*
Y0048325D01*
X010855D01*
Y0047982D01*
X010345D01*
Y0048275D01*
X010345Y0048325D01*
Y0048475D01*
X010345Y0048525D01*
Y0049725D01*
X0103082D01*
Y0050946D01*
X0103181Y0051045D01*
X010325Y005121D01*
Y005139D01*
X0103181Y0051555D01*
X0103055Y0051681D01*
X010289Y005175D01*
X010271D01*
X0102545Y0051681D01*
X0102419Y0051555D01*
X010235Y005139D01*
Y005121D01*
X0102419Y0051045D01*
X0102518Y0050946D01*
Y0049725D01*
X010215D01*
Y0048525D01*
X010215Y0048475D01*
Y0048325D01*
X010215Y0048275D01*
Y0047982D01*
X009035D01*
Y0048325D01*
X008905D01*
Y0047982D01*
X008335D01*
Y0048275D01*
X008335Y0048325D01*
Y0048475D01*
X008335Y0048525D01*
Y0049725D01*
X0082982D01*
Y0051346D01*
X0083081Y0051445D01*
X008315Y005161D01*
Y005179D01*
X0083081Y0051955D01*
X0082955Y0052081D01*
X008279Y005215D01*
X008261D01*
X0082445Y0052081D01*
X0082319Y0051955D01*
X008225Y005179D01*
Y005161D01*
X0082319Y0051445D01*
X0082418Y0051346D01*
Y0049725D01*
X008205D01*
Y0048525D01*
X008205Y0048475D01*
Y0048325D01*
X008205Y0048275D01*
Y0047982D01*
X007825D01*
Y004875D01*
X0076482D01*
Y005275D01*
X00771D01*
Y005505D01*
D02*
G37*
G36*
X0039644Y0044477D02*
X0039587D01*
Y0043207D01*
X0040857D01*
Y0043264D01*
X0040762Y0043619D01*
X0040578Y0043938D01*
X0040318Y0044198D01*
X0039999Y0044382D01*
X0039644Y0044477D01*
D02*
G37*
G36*
X0099644D02*
X0099587D01*
Y0043207D01*
X0100857D01*
Y0043264D01*
X0100762Y0043619D01*
X0100578Y0043938D01*
X0100318Y0044198D01*
X0099999Y0044382D01*
X0099644Y0044477D01*
D02*
G37*
G36*
X0079644D02*
X0079587D01*
Y0043207D01*
X0080857D01*
Y0043264D01*
X0080762Y0043619D01*
X0080578Y0043938D01*
X0080318Y0044198D01*
X0079999Y0044382D01*
X0079644Y0044477D01*
D02*
G37*
G36*
X0059644D02*
X0059587D01*
Y0043207D01*
X0060857D01*
Y0043264D01*
X0060762Y0043619D01*
X0060578Y0043938D01*
X0060318Y0044198D01*
X0059999Y0044382D01*
X0059644Y0044477D01*
D02*
G37*
G36*
X0079333D02*
X0079276D01*
X0078921Y0044382D01*
X0078602Y0044198D01*
X0078342Y0043938D01*
X0078158Y0043619D01*
X0078063Y0043264D01*
Y0043207D01*
X0079333D01*
Y0044477D01*
D02*
G37*
G36*
X0059333D02*
X0059276D01*
X0058921Y0044382D01*
X0058602Y0044198D01*
X0058342Y0043938D01*
X0058158Y0043619D01*
X0058063Y0043264D01*
Y0043207D01*
X0059333D01*
Y0044477D01*
D02*
G37*
G36*
X0039333D02*
X0039276D01*
X0038921Y0044382D01*
X0038602Y0044198D01*
X0038342Y0043938D01*
X0038158Y0043619D01*
X0038063Y0043264D01*
Y0043207D01*
X0039333D01*
Y0044477D01*
D02*
G37*
G36*
X0099333D02*
X0099276D01*
X0098921Y0044382D01*
X0098602Y0044198D01*
X0098342Y0043938D01*
X0098158Y0043619D01*
X0098063Y0043264D01*
Y0043207D01*
X0099333D01*
Y0044477D01*
D02*
G37*
G36*
X0100857Y0042953D02*
X0099587D01*
Y0041683D01*
X0099644D01*
X0099999Y0041778D01*
X0100318Y0041962D01*
X0100578Y0042222D01*
X0100762Y0042541D01*
X0100857Y0042896D01*
Y0042953D01*
D02*
G37*
G36*
X0099333D02*
X0098063D01*
Y0042896D01*
X0098158Y0042541D01*
X0098342Y0042222D01*
X0098602Y0041962D01*
X0098921Y0041778D01*
X0099276Y0041683D01*
X0099333D01*
Y0042953D01*
D02*
G37*
G36*
X0080857D02*
X0079587D01*
Y0041683D01*
X0079644D01*
X0079999Y0041778D01*
X0080318Y0041962D01*
X0080578Y0042222D01*
X0080762Y0042541D01*
X0080857Y0042896D01*
Y0042953D01*
D02*
G37*
G36*
X0079333D02*
X0078063D01*
Y0042896D01*
X0078158Y0042541D01*
X0078342Y0042222D01*
X0078602Y0041962D01*
X0078921Y0041778D01*
X0079276Y0041683D01*
X0079333D01*
Y0042953D01*
D02*
G37*
G36*
X0060857D02*
X0059587D01*
Y0041683D01*
X0059644D01*
X0059999Y0041778D01*
X0060318Y0041962D01*
X0060578Y0042222D01*
X0060762Y0042541D01*
X0060857Y0042896D01*
Y0042953D01*
D02*
G37*
G36*
X0059333D02*
X0058063D01*
Y0042896D01*
X0058158Y0042541D01*
X0058342Y0042222D01*
X0058602Y0041962D01*
X0058921Y0041778D01*
X0059276Y0041683D01*
X0059333D01*
Y0042953D01*
D02*
G37*
G36*
X0040857D02*
X0039587D01*
Y0041683D01*
X0039644D01*
X0039999Y0041778D01*
X0040318Y0041962D01*
X0040578Y0042222D01*
X0040762Y0042541D01*
X0040857Y0042896D01*
Y0042953D01*
D02*
G37*
G36*
X0039333D02*
X0038063D01*
Y0042896D01*
X0038158Y0042541D01*
X0038342Y0042222D01*
X0038602Y0041962D01*
X0038921Y0041778D01*
X0039276Y0041683D01*
X0039333D01*
Y0042953D01*
D02*
G37*
G36*
X006598Y0041833D02*
X006564D01*
X0065311Y0041745D01*
X0065016Y0041575D01*
X0064775Y0041334D01*
X0064605Y0041039D01*
X0064517Y004071D01*
Y004037D01*
X0064605Y0040041D01*
X0064775Y0039746D01*
X0065016Y0039505D01*
X0065311Y0039335D01*
X006564Y0039247D01*
X006598D01*
X0066309Y0039335D01*
X0066604Y0039505D01*
X0066845Y0039746D01*
X0067015Y0040041D01*
X0067103Y004037D01*
Y004071D01*
X0067015Y0041039D01*
X0066845Y0041334D01*
X0066604Y0041575D01*
X0066309Y0041745D01*
X006598Y0041833D01*
D02*
G37*
G36*
X004598D02*
X004564D01*
X0045311Y0041745D01*
X0045016Y0041575D01*
X0044775Y0041334D01*
X0044605Y0041039D01*
X0044517Y004071D01*
Y004037D01*
X0044605Y0040041D01*
X0044775Y0039746D01*
X0045016Y0039505D01*
X0045311Y0039335D01*
X004564Y0039247D01*
X004598D01*
X0046309Y0039335D01*
X0046604Y0039505D01*
X0046845Y0039746D01*
X0047015Y0040041D01*
X0047103Y004037D01*
Y004071D01*
X0047015Y0041039D01*
X0046845Y0041334D01*
X0046604Y0041575D01*
X0046309Y0041745D01*
X004598Y0041833D01*
D02*
G37*
G36*
X0107212Y0039001D02*
X0106948D01*
X0106694Y0038933D01*
X0106465Y0038801D01*
X0106279Y0038615D01*
X0106147Y0038386D01*
X0106079Y0038132D01*
Y0037868D01*
X0106147Y0037614D01*
X0106279Y0037385D01*
X0106465Y0037199D01*
X0106694Y0037067D01*
X0106948Y0036999D01*
X0107212D01*
X0107466Y0037067D01*
X0107695Y0037199D01*
X0107881Y0037385D01*
X0108013Y0037614D01*
X0108081Y0037868D01*
Y0038132D01*
X0108013Y0038386D01*
X0107881Y0038615D01*
X0107695Y0038801D01*
X0107466Y0038933D01*
X0107212Y0039001D01*
D02*
G37*
G36*
X0097052D02*
X0096788D01*
X0096534Y0038933D01*
X0096305Y0038801D01*
X0096119Y0038615D01*
X0095987Y0038386D01*
X0095919Y0038132D01*
Y0037868D01*
X0095987Y0037614D01*
X0096119Y0037385D01*
X0096305Y0037199D01*
X0096534Y0037067D01*
X0096788Y0036999D01*
X0097052D01*
X0097306Y0037067D01*
X0097535Y0037199D01*
X0097721Y0037385D01*
X0097853Y0037614D01*
X0097921Y0037868D01*
Y0038132D01*
X0097853Y0038386D01*
X0097721Y0038615D01*
X0097535Y0038801D01*
X0097306Y0038933D01*
X0097052Y0039001D01*
D02*
G37*
G36*
X0087212D02*
X0086948D01*
X0086694Y0038933D01*
X0086465Y0038801D01*
X0086279Y0038615D01*
X0086147Y0038386D01*
X0086079Y0038132D01*
Y0037868D01*
X0086147Y0037614D01*
X0086279Y0037385D01*
X0086465Y0037199D01*
X0086694Y0037067D01*
X0086948Y0036999D01*
X0087212D01*
X0087466Y0037067D01*
X0087695Y0037199D01*
X0087881Y0037385D01*
X0088013Y0037614D01*
X0088081Y0037868D01*
Y0038132D01*
X0088013Y0038386D01*
X0087881Y0038615D01*
X0087695Y0038801D01*
X0087466Y0038933D01*
X0087212Y0039001D01*
D02*
G37*
G36*
X0077052D02*
X0076788D01*
X0076534Y0038933D01*
X0076305Y0038801D01*
X0076119Y0038615D01*
X0075987Y0038386D01*
X0075919Y0038132D01*
Y0037868D01*
X0075987Y0037614D01*
X0076119Y0037385D01*
X0076305Y0037199D01*
X0076534Y0037067D01*
X0076788Y0036999D01*
X0077052D01*
X0077306Y0037067D01*
X0077535Y0037199D01*
X0077721Y0037385D01*
X0077853Y0037614D01*
X0077921Y0037868D01*
Y0038132D01*
X0077853Y0038386D01*
X0077721Y0038615D01*
X0077535Y0038801D01*
X0077306Y0038933D01*
X0077052Y0039001D01*
D02*
G37*
G36*
X0067212D02*
X0066948D01*
X0066694Y0038933D01*
X0066465Y0038801D01*
X0066279Y0038615D01*
X0066147Y0038386D01*
X0066079Y0038132D01*
Y0037868D01*
X0066147Y0037614D01*
X0066279Y0037385D01*
X0066465Y0037199D01*
X0066694Y0037067D01*
X0066948Y0036999D01*
X0067212D01*
X0067466Y0037067D01*
X0067695Y0037199D01*
X0067881Y0037385D01*
X0068013Y0037614D01*
X0068081Y0037868D01*
Y0038132D01*
X0068013Y0038386D01*
X0067881Y0038615D01*
X0067695Y0038801D01*
X0067466Y0038933D01*
X0067212Y0039001D01*
D02*
G37*
G36*
X0057052D02*
X0056788D01*
X0056534Y0038933D01*
X0056305Y0038801D01*
X0056119Y0038615D01*
X0055987Y0038386D01*
X0055919Y0038132D01*
Y0037868D01*
X0055987Y0037614D01*
X0056119Y0037385D01*
X0056305Y0037199D01*
X0056534Y0037067D01*
X0056788Y0036999D01*
X0057052D01*
X0057306Y0037067D01*
X0057535Y0037199D01*
X0057721Y0037385D01*
X0057853Y0037614D01*
X0057921Y0037868D01*
Y0038132D01*
X0057853Y0038386D01*
X0057721Y0038615D01*
X0057535Y0038801D01*
X0057306Y0038933D01*
X0057052Y0039001D01*
D02*
G37*
G36*
X0047212D02*
X0046948D01*
X0046694Y0038933D01*
X0046465Y0038801D01*
X0046279Y0038615D01*
X0046147Y0038386D01*
X0046079Y0038132D01*
Y0037868D01*
X0046147Y0037614D01*
X0046279Y0037385D01*
X0046465Y0037199D01*
X0046694Y0037067D01*
X0046948Y0036999D01*
X0047212D01*
X0047466Y0037067D01*
X0047695Y0037199D01*
X0047881Y0037385D01*
X0048013Y0037614D01*
X0048081Y0037868D01*
Y0038132D01*
X0048013Y0038386D01*
X0047881Y0038615D01*
X0047695Y0038801D01*
X0047466Y0038933D01*
X0047212Y0039001D01*
D02*
G37*
G36*
X0037052D02*
X0036788D01*
X0036534Y0038933D01*
X0036305Y0038801D01*
X0036119Y0038615D01*
X0035987Y0038386D01*
X0035919Y0038132D01*
Y0037868D01*
X0035987Y0037614D01*
X0036119Y0037385D01*
X0036305Y0037199D01*
X0036534Y0037067D01*
X0036788Y0036999D01*
X0037052D01*
X0037306Y0037067D01*
X0037535Y0037199D01*
X0037721Y0037385D01*
X0037853Y0037614D01*
X0037921Y0037868D01*
Y0038132D01*
X0037853Y0038386D01*
X0037721Y0038615D01*
X0037535Y0038801D01*
X0037306Y0038933D01*
X0037052Y0039001D01*
D02*
G37*
G36*
X0082211Y0040144D02*
X0081789D01*
X0081375Y0040062D01*
X0080984Y00399D01*
X0080633Y0039665D01*
X0080335Y0039367D01*
X00801Y0039016D01*
X0079938Y0038625D01*
X0079856Y0038211D01*
Y0037789D01*
X0079938Y0037375D01*
X00801Y0036984D01*
X0080335Y0036633D01*
X0080633Y0036335D01*
X0080984Y00361D01*
X0081375Y0035938D01*
X0081789Y0035856D01*
X0082211D01*
X0082625Y0035938D01*
X0083016Y00361D01*
X0083367Y0036335D01*
X0083665Y0036633D01*
X00839Y0036984D01*
X0084062Y0037375D01*
X0084144Y0037789D01*
Y0038211D01*
X0084062Y0038625D01*
X00839Y0039016D01*
X0083665Y0039367D01*
X0083367Y0039665D01*
X0083016Y00399D01*
X0082625Y0040062D01*
X0082211Y0040144D01*
D02*
G37*
G36*
X0062211D02*
X0061789D01*
X0061375Y0040062D01*
X0060984Y00399D01*
X0060633Y0039665D01*
X0060335Y0039367D01*
X00601Y0039016D01*
X0059938Y0038625D01*
X0059856Y0038211D01*
Y0037789D01*
X0059938Y0037375D01*
X00601Y0036984D01*
X0060335Y0036633D01*
X0060633Y0036335D01*
X0060984Y00361D01*
X0061375Y0035938D01*
X0061789Y0035856D01*
X0062211D01*
X0062625Y0035938D01*
X0063016Y00361D01*
X0063367Y0036335D01*
X0063665Y0036633D01*
X00639Y0036984D01*
X0064062Y0037375D01*
X0064144Y0037789D01*
Y0038211D01*
X0064062Y0038625D01*
X00639Y0039016D01*
X0063665Y0039367D01*
X0063367Y0039665D01*
X0063016Y00399D01*
X0062625Y0040062D01*
X0062211Y0040144D01*
D02*
G37*
G36*
X0042211D02*
X0041789D01*
X0041375Y0040062D01*
X0040984Y00399D01*
X0040633Y0039665D01*
X0040335Y0039367D01*
X00401Y0039016D01*
X0039938Y0038625D01*
X0039856Y0038211D01*
Y0037789D01*
X0039938Y0037375D01*
X00401Y0036984D01*
X0040335Y0036633D01*
X0040633Y0036335D01*
X0040984Y00361D01*
X0041375Y0035938D01*
X0041789Y0035856D01*
X0042211D01*
X0042625Y0035938D01*
X0043016Y00361D01*
X0043367Y0036335D01*
X0043665Y0036633D01*
X00439Y0036984D01*
X0044062Y0037375D01*
X0044144Y0037789D01*
Y0038211D01*
X0044062Y0038625D01*
X00439Y0039016D01*
X0043665Y0039367D01*
X0043367Y0039665D01*
X0043016Y00399D01*
X0042625Y0040062D01*
X0042211Y0040144D01*
D02*
G37*
G36*
X0029163Y003195D02*
X0028837D01*
X0028519Y0031887D01*
X0028218Y0031762D01*
X0027948Y0031582D01*
X0027718Y0031352D01*
X0027538Y0031082D01*
X0027413Y0030781D01*
X002735Y0030463D01*
Y0030137D01*
X0027413Y0029819D01*
X0027538Y0029518D01*
X0027718Y0029248D01*
X0027948Y0029018D01*
X0028218Y0028838D01*
X0028519Y0028713D01*
X0028837Y002865D01*
X0029163D01*
X0029481Y0028713D01*
X0029782Y0028838D01*
X0030052Y0029018D01*
X0030282Y0029248D01*
X0030462Y0029518D01*
X0030587Y0029819D01*
X003065Y0030137D01*
Y0030463D01*
X0030587Y0030781D01*
X0030462Y0031082D01*
X0030282Y0031352D01*
X0030052Y0031582D01*
X0029782Y0031762D01*
X0029481Y0031887D01*
X0029163Y003195D01*
D02*
G37*
G36*
X0115163Y003165D02*
X0114837D01*
X0114519Y0031587D01*
X0114218Y0031462D01*
X0113948Y0031282D01*
X0113718Y0031052D01*
X0113538Y0030782D01*
X0113413Y0030481D01*
X011335Y0030163D01*
Y0029837D01*
X0113413Y0029519D01*
X0113538Y0029218D01*
X0113718Y0028948D01*
X0113948Y0028718D01*
X0114218Y0028538D01*
X0114519Y0028413D01*
X0114837Y002835D01*
X0115163D01*
X0115481Y0028413D01*
X0115782Y0028538D01*
X0116052Y0028718D01*
X0116282Y0028948D01*
X0116462Y0029218D01*
X0116587Y0029519D01*
X011665Y0029837D01*
Y0030163D01*
X0116587Y0030481D01*
X0116462Y0030782D01*
X0116282Y0031052D01*
X0116052Y0031282D01*
X0115782Y0031462D01*
X0115481Y0031587D01*
X0115163Y003165D01*
D02*
G37*
%LPD*%
G36*
X0030958Y0063033D02*
Y0062817D01*
X0030861Y0062672D01*
X0030826Y00625D01*
X0030861Y0062328D01*
X0030958Y0062183D01*
X003086Y0062008D01*
X0030763Y0061862D01*
X0030746Y0061777D01*
X003141D01*
Y0061523D01*
X0030746D01*
X0030763Y0061438D01*
X0030883Y0061258D01*
X0030965Y0061203D01*
X0030916Y0060995D01*
X0030846Y0060986D01*
X0030675Y0060915D01*
X0030528Y0060802D01*
X0030415Y0060655D01*
X0030344Y0060484D01*
X0030337Y0060427D01*
X0033223D01*
X0033216Y0060484D01*
X0033145Y0060655D01*
X0033032Y0060802D01*
X0032905Y00609D01*
X0032902Y0060966D01*
X0032947Y0061106D01*
X0033107Y0061138D01*
X0033287Y0061258D01*
X0033407Y0061438D01*
X0033424Y0061523D01*
X003276D01*
Y0061777D01*
X0033424D01*
X0033407Y0061862D01*
X0033321Y0061992D01*
X0033384Y0062161D01*
X0033409Y0062192D01*
X0036372D01*
X0036445Y0062119D01*
X003661Y006205D01*
X0036715D01*
X0038892Y0059872D01*
Y0058028D01*
X0038584Y0057719D01*
X0038418D01*
X0038229Y0057746D01*
X0038229Y0057919D01*
Y0058373D01*
X00375D01*
Y00585D01*
X0037373D01*
Y0059254D01*
X0036882D01*
X0036771Y0059254D01*
X0036614Y005915D01*
X0036571D01*
X0035475D01*
Y0058782D01*
X0027817D01*
X0027182Y0059417D01*
Y0059912D01*
X0027382Y0059951D01*
X0027385Y0059945D01*
X0027498Y0059798D01*
X0027645Y0059685D01*
X0027816Y0059614D01*
X0028Y005959D01*
X0028273D01*
Y00603D01*
Y006101D01*
X0028D01*
X0027816Y0060986D01*
X0027734Y0060952D01*
X0027621Y0061121D01*
X0029567Y0063068D01*
X0030935D01*
X0030958Y0063033D01*
D02*
G37*
%LPC*%
G36*
X00288Y006101D02*
X0028527D01*
Y0060427D01*
X0029493D01*
X0029486Y0060484D01*
X0029415Y0060655D01*
X0029302Y0060802D01*
X0029155Y0060915D01*
X0028984Y0060986D01*
X00288Y006101D01*
D02*
G37*
G36*
X0033223Y0060173D02*
X0031907D01*
Y005959D01*
X003253D01*
X0032714Y0059614D01*
X0032885Y0059685D01*
X0033032Y0059798D01*
X0033145Y0059945D01*
X0033216Y0060116D01*
X0033223Y0060173D01*
D02*
G37*
G36*
X0031653D02*
X0030337D01*
X0030344Y0060116D01*
X0030415Y0059945D01*
X0030528Y0059798D01*
X0030675Y0059685D01*
X0030846Y0059614D01*
X003103Y005959D01*
X0031653D01*
Y0060173D01*
D02*
G37*
G36*
X0029493D02*
X0028527D01*
Y005959D01*
X00288D01*
X0028984Y0059614D01*
X0029155Y0059685D01*
X0029302Y0059798D01*
X0029415Y0059945D01*
X0029486Y0060116D01*
X0029493Y0060173D01*
D02*
G37*
G36*
X0037627Y0059254D02*
Y0058627D01*
X0038229D01*
Y0059254D01*
X0037627D01*
D02*
G37*
%LPD*%
D10*
X0057032Y0056267D02*
X0057058Y0056293D01*
X0037078Y00547D02*
X0038689Y0056311D01*
X00351Y00547D02*
X0037078D01*
X0038689Y0056311D02*
X0049211D01*
X00529Y0057D02*
X0056883D01*
X007295Y00627D02*
X00731Y006255D01*
Y00581D02*
Y006255D01*
Y00581D02*
X00754Y00558D01*
X0065888Y0053212D02*
Y0054663D01*
Y0053212D02*
X00662Y00529D01*
X00673D01*
X0068419Y0051781D01*
X0068587D01*
X00731Y00461D02*
X007355Y004565D01*
X008225D01*
X00722Y00451D02*
X008125D01*
X00717Y00456D02*
X00722Y00451D01*
X00877Y00401D02*
Y00417D01*
X00861Y00433D02*
X00877Y00417D01*
X00846Y00433D02*
X00861D01*
X008125Y00451D02*
X008581Y004054D01*
X008225Y004565D02*
X00846Y00433D01*
X00877Y00401D02*
X0088Y00398D01*
X00899D01*
X009064Y004054D01*
X010581D01*
X00763Y00477D02*
X00827D01*
X00762Y00476D02*
X00763Y00477D01*
X0089Y00408D02*
Y00417D01*
X00897Y00424D01*
Y00463D01*
Y00477D02*
X01028D01*
X00667Y0053646D02*
Y0054652D01*
Y0053646D02*
X0066742Y0053604D01*
X0067447D01*
X0068051Y0053D01*
X00689D01*
X0066688Y0054663D02*
X00667Y0054652D01*
X00776Y00514D02*
X00803D01*
X00851Y00562D01*
Y00585D01*
X008575Y005915D01*
Y006056D01*
X0068288Y0057863D02*
X0069363D01*
X00714Y00599D01*
X0074681Y0059877D02*
X0079477D01*
X00826Y0063D01*
X00871D01*
X0089Y00611D01*
X010525D01*
X010581Y006054D01*
X00754Y00558D02*
X00777D01*
X00827Y00477D02*
X00897D01*
X0063488Y0053012D02*
Y0054663D01*
Y0053012D02*
X00635Y0053D01*
X00644Y00531D02*
X00645D01*
X0064288Y0053212D02*
X00644Y00531D01*
X00663Y0052D02*
X00671D01*
X0065088Y0053212D02*
X00663Y0052D01*
X0065088Y0053212D02*
Y0054663D01*
X0065Y00523D02*
X00654Y00519D01*
X00633Y00523D02*
X0065D01*
X0062688Y0052912D02*
X00633Y00523D01*
X0064288Y0053212D02*
Y0054663D01*
X00452Y00627D02*
X0057052D01*
X00436Y00643D02*
X00452Y00627D01*
X00536Y00545D02*
X0055D01*
X0052775Y0053675D02*
X00536Y00545D01*
X0055D02*
X00561Y00534D01*
X0052775Y00487D02*
Y0053675D01*
X0043Y00487D02*
X0052775D01*
X00561Y00534D02*
X00594D01*
X00556Y00587D02*
X0057052D01*
X0057088Y0058663D01*
X0052563Y0057863D02*
X0057088D01*
X0056983Y00571D02*
X0057054Y0057029D01*
X0056883Y0057D02*
X0056983Y00571D01*
X00521Y00563D02*
X0056998D01*
X0057032Y0056267D01*
X00492Y00545D02*
X0052563Y0057863D01*
X00381Y00545D02*
X00492D01*
X00594Y00534D02*
X0059488Y0053488D01*
Y0054663D01*
X00277Y00585D02*
X00361D01*
X01028Y00491D02*
Y00513D01*
X00827Y00491D02*
Y00517D01*
X00785Y00539D02*
Y0055D01*
X00777Y00558D02*
X00785Y0055D01*
X0071663Y0062663D02*
X00717Y00627D01*
X0068288Y0062663D02*
X0071663D01*
X0057054Y0057029D02*
X0057088Y0057063D01*
X0057052Y00627D02*
X0057088Y0062663D01*
X004053Y0064313D02*
X004055Y0064293D01*
X0037772Y0064313D02*
X004053D01*
X003775Y00662D02*
X00401D01*
X0044437Y0061863D01*
X0057088D01*
X00543Y005945D02*
X005505D01*
X0055863Y0060263D01*
X0057088D01*
X00269Y00593D02*
X00277Y00585D01*
X00269Y00593D02*
Y00608D01*
X002945Y006335D01*
X003141D01*
X00351Y006505D02*
X003625Y00662D01*
X003276Y006505D02*
X00351D01*
X003276Y00642D02*
X0032873Y0064313D01*
X0036272D01*
X00364Y00685D02*
X00402D01*
X00338Y00659D02*
X00364Y00685D01*
X003276Y00659D02*
X00338D01*
X003255Y006505D02*
X003276D01*
X00317Y00642D02*
X003255Y006505D01*
X003141Y00642D02*
X00317D01*
X0057058Y0056293D02*
X0057088Y0056263D01*
X00363Y00527D02*
X00381Y00545D01*
X00351Y00527D02*
X00363D01*
X00654Y00505D02*
Y00519D01*
X0062688Y0052912D02*
Y0054663D01*
X00607Y00505D02*
X006075Y005045D01*
X00608Y00505D02*
Y00518D01*
X0061888Y0054663D02*
X00619Y0054652D01*
Y00529D02*
Y0054652D01*
X00608Y00518D02*
X00619Y00529D01*
X00654Y00505D02*
X00683D01*
X00582D02*
X00607D01*
X006055Y006738D02*
Y00685D01*
X0060288Y0067118D02*
X006055Y006738D01*
X0060288Y0065863D02*
Y0067118D01*
X01028Y00477D02*
X01092D01*
X00756Y0047D02*
X00762Y00476D01*
X00704Y0047D02*
X00756D01*
X00497D02*
X00704D01*
X0104778Y0032819D02*
X01092Y0037241D01*
Y00463D01*
X00651Y0033D02*
X00704Y00383D01*
Y00456D01*
X0045Y00329D02*
X00497Y00376D01*
Y00456D01*
X0041Y00507D02*
X0043Y00487D01*
X00351Y00507D02*
X0041D01*
X006075Y005045D02*
X00608Y00505D01*
X00762Y00476D02*
Y00539D01*
D34*
X00731Y00627D02*
D03*
X00716D02*
D03*
X005585Y0052D02*
D03*
X005415D02*
D03*
X0052775Y00487D02*
D03*
X0054225D02*
D03*
X00402Y00685D02*
D03*
X00416D02*
D03*
X00361Y00585D02*
D03*
X00375D02*
D03*
X005455Y00639D02*
D03*
X005285D02*
D03*
X003755Y00699D02*
D03*
X003625D02*
D03*
X003775Y00662D02*
D03*
X003625D02*
D03*
X0037772Y0064313D02*
D03*
X0036272D02*
D03*
X006055Y00685D02*
D03*
X005885D02*
D03*
X006755D02*
D03*
X006585D02*
D03*
X005675Y0067D02*
D03*
X005505D02*
D03*
D35*
X00712Y0057D02*
D03*
X00704Y00456D02*
D03*
Y0047D02*
D03*
X00712Y00553D02*
D03*
X00827Y00491D02*
D03*
Y00477D02*
D03*
X01092Y00463D02*
D03*
Y00477D02*
D03*
X01028Y00491D02*
D03*
Y00477D02*
D03*
X00897Y00463D02*
D03*
Y00477D02*
D03*
X00683Y0049D02*
D03*
Y00505D02*
D03*
X00582Y0049D02*
D03*
Y00505D02*
D03*
X00543Y005945D02*
D03*
Y006095D02*
D03*
X00497Y00456D02*
D03*
Y0047D02*
D03*
D36*
X00608Y00505D02*
D03*
X00654D02*
D03*
D37*
X00395Y00487D02*
D03*
Y00527D02*
D03*
X00463Y00487D02*
D03*
Y00527D02*
D03*
D38*
X0058688Y0065863D02*
D03*
X0059488D02*
D03*
X0060288D02*
D03*
X0061088D02*
D03*
X0061888D02*
D03*
X0062688D02*
D03*
X0063488D02*
D03*
X0064288D02*
D03*
X0065088D02*
D03*
X0065888D02*
D03*
X0066688D02*
D03*
Y0054663D02*
D03*
X0065888D02*
D03*
X0065088D02*
D03*
X0064288D02*
D03*
X0063488D02*
D03*
X0062688D02*
D03*
X0061888D02*
D03*
X0061088D02*
D03*
X0060288D02*
D03*
X0059488D02*
D03*
X0058688D02*
D03*
D39*
X0068288Y0064263D02*
D03*
Y0063463D02*
D03*
Y0062663D02*
D03*
Y0061863D02*
D03*
Y0061063D02*
D03*
Y0060263D02*
D03*
Y0059463D02*
D03*
Y0058663D02*
D03*
Y0057863D02*
D03*
Y0057063D02*
D03*
Y0056263D02*
D03*
X0057088D02*
D03*
Y0057063D02*
D03*
Y0057863D02*
D03*
Y0058663D02*
D03*
Y0059463D02*
D03*
Y0060263D02*
D03*
Y0061063D02*
D03*
Y0061863D02*
D03*
Y0062663D02*
D03*
Y0063463D02*
D03*
Y0064263D02*
D03*
D40*
X00762Y00476D02*
D03*
D41*
X00739Y00539D02*
D03*
X00762D02*
D03*
X00785D02*
D03*
D42*
X0061463Y0057063D02*
X0068288D01*
X00608Y00564D02*
X0061463Y0057063D01*
X0071137D02*
X00712Y0057D01*
X0068288Y0057063D02*
X0071137D01*
X0038711Y0057411D02*
X00392Y00579D01*
X0037889Y0057411D02*
X0038711D01*
X0037398Y0056921D02*
X0037889Y0057411D01*
X0035321Y0056921D02*
X0037398D01*
X00331Y00547D02*
X0035321Y0056921D01*
X00585Y00595D02*
Y00631D01*
X0058137Y0063463D02*
X00585Y00631D01*
X0057088Y0059463D02*
X0058463D01*
X00585Y00595D01*
X00603Y00564D02*
X00608D01*
X00739Y00539D02*
Y00557D01*
X00726Y0057D02*
X00739Y00557D01*
X00712Y0057D02*
X00726D01*
X00585Y00582D02*
Y00595D01*
X0060288Y0054663D02*
X00603Y0054675D01*
Y00564D01*
X00585Y00582D02*
X00603Y00564D01*
X0057088Y0063463D02*
X0058137D01*
X0066688Y0064688D02*
Y0065863D01*
X00665Y00645D02*
X0066688Y0064688D01*
X0059Y00645D02*
X00665D01*
X0058688Y0064812D02*
X0059Y00645D01*
X0058688Y0064812D02*
Y0065863D01*
X00558Y00646D02*
Y0065387D01*
X005525Y00646D02*
X00558D01*
X005455Y00639D02*
X005525Y00646D01*
X00555Y00639D02*
X0055937Y0063463D01*
X005455Y00639D02*
X00555D01*
X0054225Y00487D02*
X005585Y0050325D01*
Y0052D01*
X00592D01*
X0060288Y0053088D01*
Y0054663D01*
X003276Y00625D02*
X00367D01*
X00392Y006D01*
X003276Y00625D02*
X003276Y00625D01*
X00392Y00579D02*
Y006D01*
X0055787Y00654D02*
X00558Y0065387D01*
X005675Y0066363D02*
Y0067D01*
X0055787Y00654D02*
X005675Y0066363D01*
X00347Y00699D02*
X003625D01*
X0058688Y0065863D02*
Y0066812D01*
X00585Y0067D02*
X0058688Y0066812D01*
X005675Y0067D02*
X00585D01*
X0055937Y0063463D02*
X0057088D01*
X003141Y00625D02*
X003276D01*
Y006675D02*
X00331D01*
X003141D02*
X003276D01*
X00675Y006845D02*
X006755Y00685D01*
X00675Y00671D02*
Y006845D01*
X0066688Y0066288D02*
X00675Y00671D01*
X0066688Y0065863D02*
Y0066288D01*
D43*
X005415Y0052D02*
Y00535D01*
X0068825Y0049D02*
X0069613Y0049787D01*
X00683Y0049D02*
X0068825D01*
X0069613Y0049787D02*
Y00553D01*
X00595Y00481D02*
Y00486D01*
Y00481D02*
X00674D01*
X00712Y00541D02*
X00717Y00536D01*
X00712Y00541D02*
Y00553D01*
X0061463Y0056263D02*
X0068288D01*
X0061088Y0055888D02*
X0061463Y0056263D01*
X0061088Y0054663D02*
Y0055888D01*
X0069613Y00553D02*
Y0056263D01*
Y00553D02*
X00712D01*
X0068288Y0056263D02*
X0069613D01*
X00551Y00685D02*
X005885D01*
X00416D02*
X00551D01*
X005505Y0067D02*
Y006845D01*
X00551Y00685D01*
X006585D02*
Y006945D01*
X00654Y00699D02*
X006585Y006945D01*
X00591Y00699D02*
X00654D01*
X005885Y006965D02*
X00591Y00699D01*
X005885Y00685D02*
Y006965D01*
X0051594Y006095D02*
X00543D01*
X0051507Y0061037D02*
X0051594Y006095D01*
X0051523Y0063921D02*
X0051544Y00639D01*
X005285D01*
X00375Y00577D02*
Y00585D01*
X00372Y00574D02*
X00375Y00577D01*
X00324Y00574D02*
X00372D01*
X00313Y00563D02*
X00324Y00574D01*
X00313Y00521D02*
Y00563D01*
Y00521D02*
X00327Y00507D01*
X00674Y00481D02*
X00683Y0049D01*
X00582D02*
X00591D01*
X00595Y00486D01*
X003178Y006895D02*
Y006928D01*
X00335Y0071D01*
X00373D01*
X003755Y007075D01*
Y00699D02*
Y007075D01*
X00416Y00685D02*
X00416Y00685D01*
Y00694D01*
X00411Y00699D02*
X00416Y00694D01*
X003755Y00699D02*
X00411D01*
X005285Y00648D02*
X005505Y0067D01*
X005285Y00639D02*
Y00648D01*
X00375Y00585D02*
X00375Y00585D01*
Y00595D01*
X00367Y00603D02*
X00375Y00595D01*
X003178Y00603D02*
X00367D01*
X00327Y00507D02*
X00331D01*
X00543Y006095D02*
X0054413Y0061063D01*
X0057088D01*
X003141Y006067D02*
Y006165D01*
Y006067D02*
X003178Y00603D01*
X003141Y006165D02*
X003276D01*
X00284Y00603D02*
X003178D01*
X003141Y006858D02*
X003178Y006895D01*
X003141Y00676D02*
Y006858D01*
Y00676D02*
X003276D01*
X00284Y006895D02*
X003178D01*
X003384Y004866D02*
X003946D01*
X00331Y00494D02*
X003384Y004866D01*
X00331Y00494D02*
Y00507D01*
X0059488Y0065863D02*
Y0066912D01*
X005885Y006755D02*
X0059488Y0066912D01*
X005885Y006755D02*
Y00685D01*
X006585D02*
X0065888Y0068462D01*
Y0065863D02*
Y0068462D01*
X003946Y004308D02*
Y004866D01*
D44*
X008702Y005802D02*
D03*
X007686D02*
D03*
X0115Y0076D02*
D03*
X0029D02*
D03*
X005692Y0038D02*
D03*
X006708D02*
D03*
X009692Y0058D02*
D03*
X010708D02*
D03*
X003692Y0038D02*
D03*
X004708D02*
D03*
X007692D02*
D03*
X008708D02*
D03*
X009692D02*
D03*
X010708D02*
D03*
X0115Y003D02*
D03*
X0029Y00303D02*
D03*
D45*
X00794Y00631D02*
D03*
X008575Y006056D02*
D03*
X006581Y004054D02*
D03*
X005946Y004308D02*
D03*
X010581Y006054D02*
D03*
X009946Y006308D02*
D03*
X004581Y004054D02*
D03*
X003946Y004308D02*
D03*
X008581Y004054D02*
D03*
X007946Y004308D02*
D03*
X010581Y004054D02*
D03*
X009946Y004308D02*
D03*
D46*
X008194Y005802D02*
D03*
X0062Y0038D02*
D03*
X0102Y0058D02*
D03*
X0042Y0038D02*
D03*
X0082D02*
D03*
X0102D02*
D03*
D47*
X00351Y00507D02*
D03*
Y00527D02*
D03*
X00331Y00507D02*
D03*
Y00527D02*
D03*
Y00547D02*
D03*
D48*
X00351D02*
D03*
D49*
X003178Y00603D02*
D03*
Y006895D02*
D03*
D50*
X003141Y006165D02*
D03*
Y00642D02*
D03*
Y006335D02*
D03*
Y00659D02*
D03*
Y006505D02*
D03*
Y00676D02*
D03*
Y00625D02*
D03*
Y006675D02*
D03*
X003276Y006165D02*
D03*
Y00642D02*
D03*
Y006335D02*
D03*
Y00659D02*
D03*
Y006505D02*
D03*
Y00676D02*
D03*
Y00625D02*
D03*
Y006675D02*
D03*
D51*
X00284Y00603D02*
D03*
Y006895D02*
D03*
D52*
X0049211Y0056311D02*
D03*
X00529Y0057D02*
D03*
X0068587Y0051781D02*
D03*
X00731Y00461D02*
D03*
X00717Y00456D02*
D03*
X0089Y00408D02*
D03*
X00689Y0053D02*
D03*
X00776Y00514D02*
D03*
X00714Y00599D02*
D03*
X0074681Y0059877D02*
D03*
X00635Y0053D02*
D03*
X00645Y00531D02*
D03*
X00671Y0052D02*
D03*
X00595Y00481D02*
D03*
X00717Y00536D02*
D03*
X0051507Y0061037D02*
D03*
X0051523Y0063921D02*
D03*
X00542Y00535D02*
D03*
X00556Y00587D02*
D03*
X00521Y00563D02*
D03*
X00367Y00625D02*
D03*
X01028Y00513D02*
D03*
X00827Y00517D02*
D03*
X0055787Y00654D02*
D03*
X00347Y00699D02*
D03*
X00436Y00643D02*
D03*
X004055Y0064293D02*
D03*
X0104778Y0032819D02*
D03*
X00651Y0033D02*
D03*
X0045Y00329D02*
D03*
M02*
