G04*
G04 #@! TF.GenerationSoftware,Altium Limited,CircuitMaker,2.2.1 (2.2.1.6)*
G04*
G04 Layer_Color=20142*
%FSTAX43Y43*%
%MOMM*%
G71*
G04*
G04 #@! TF.SameCoordinates,C8B466FA-36BC-4938-8632-075A3B1F3AF2*
G04*
G04*
G04 #@! TF.FilePolarity,Negative*
G04*
G01*
G75*
%ADD17R,1.153X1.203*%
%ADD18R,1.203X1.153*%
%ADD19R,2.603X2.603*%
%ADD20R,3.403X1.203*%
%ADD21R,0.584X1.473*%
%ADD22R,1.473X0.584*%
%ADD23R,4.003X2.203*%
%ADD24R,1.703X2.203*%
%ADD25C,1.727*%
%ADD26C,2.489*%
%ADD27C,4.191*%
%ADD28C,1.600*%
%ADD29R,1.600X1.600*%
%ADD30O,2.603X1.103*%
%ADD31O,0.950X0.680*%
%ADD32O,1.903X1.103*%
%ADD33C,0.803*%
D17*
X00731Y00627D02*
D03*
X00716D02*
D03*
X005585Y0052D02*
D03*
X005415D02*
D03*
X0052775Y00487D02*
D03*
X0054225D02*
D03*
X00402Y00685D02*
D03*
X00416D02*
D03*
X00361Y00585D02*
D03*
X00375D02*
D03*
X005455Y00639D02*
D03*
X005285D02*
D03*
X003755Y00699D02*
D03*
X003625D02*
D03*
X003775Y00662D02*
D03*
X003625D02*
D03*
X0037772Y0064313D02*
D03*
X0036272D02*
D03*
X006055Y00685D02*
D03*
X005885D02*
D03*
X006755D02*
D03*
X006585D02*
D03*
X005675Y0067D02*
D03*
X005505D02*
D03*
D18*
X00712Y0057D02*
D03*
X00704Y00456D02*
D03*
Y0047D02*
D03*
X00712Y00553D02*
D03*
X00827Y00491D02*
D03*
Y00477D02*
D03*
X01092Y00463D02*
D03*
Y00477D02*
D03*
X01028Y00491D02*
D03*
Y00477D02*
D03*
X00897Y00463D02*
D03*
Y00477D02*
D03*
X00683Y0049D02*
D03*
Y00505D02*
D03*
X00582Y0049D02*
D03*
Y00505D02*
D03*
X00543Y005945D02*
D03*
Y006095D02*
D03*
X00497Y00456D02*
D03*
Y0047D02*
D03*
D19*
X00608Y00505D02*
D03*
X00654D02*
D03*
D20*
X00395Y00487D02*
D03*
Y00527D02*
D03*
X00463Y00487D02*
D03*
Y00527D02*
D03*
D21*
X0058688Y0065863D02*
D03*
X0059488D02*
D03*
X0060288D02*
D03*
X0061088D02*
D03*
X0061888D02*
D03*
X0062688D02*
D03*
X0063488D02*
D03*
X0064288D02*
D03*
X0065088D02*
D03*
X0065888D02*
D03*
X0066688D02*
D03*
Y0054663D02*
D03*
X0065888D02*
D03*
X0065088D02*
D03*
X0064288D02*
D03*
X0063488D02*
D03*
X0062688D02*
D03*
X0061888D02*
D03*
X0061088D02*
D03*
X0060288D02*
D03*
X0059488D02*
D03*
X0058688D02*
D03*
D22*
X0068288Y0064263D02*
D03*
Y0063463D02*
D03*
Y0062663D02*
D03*
Y0061863D02*
D03*
Y0061063D02*
D03*
Y0060263D02*
D03*
Y0059463D02*
D03*
Y0058663D02*
D03*
Y0057863D02*
D03*
Y0057063D02*
D03*
Y0056263D02*
D03*
X0057088D02*
D03*
Y0057063D02*
D03*
Y0057863D02*
D03*
Y0058663D02*
D03*
Y0059463D02*
D03*
Y0060263D02*
D03*
Y0061063D02*
D03*
Y0061863D02*
D03*
Y0062663D02*
D03*
Y0063463D02*
D03*
Y0064263D02*
D03*
D23*
X00762Y00476D02*
D03*
D24*
X00739Y00539D02*
D03*
X00762D02*
D03*
X00785D02*
D03*
D25*
X008702Y005802D02*
D03*
X007686D02*
D03*
X0115Y0076D02*
D03*
X0029D02*
D03*
X005692Y0038D02*
D03*
X006708D02*
D03*
X009692Y0058D02*
D03*
X010708D02*
D03*
X003692Y0038D02*
D03*
X004708D02*
D03*
X007692D02*
D03*
X008708D02*
D03*
X009692D02*
D03*
X010708D02*
D03*
X0115Y003D02*
D03*
X0029Y00303D02*
D03*
D26*
X00794Y00631D02*
D03*
X008575Y006056D02*
D03*
X006581Y004054D02*
D03*
X005946Y004308D02*
D03*
X010581Y006054D02*
D03*
X009946Y006308D02*
D03*
X004581Y004054D02*
D03*
X003946Y004308D02*
D03*
X008581Y004054D02*
D03*
X007946Y004308D02*
D03*
X010581Y004054D02*
D03*
X009946Y004308D02*
D03*
D27*
X008194Y005802D02*
D03*
X0062Y0038D02*
D03*
X0102Y0058D02*
D03*
X0042Y0038D02*
D03*
X0082D02*
D03*
X0102D02*
D03*
D28*
X00351Y00507D02*
D03*
Y00527D02*
D03*
X00331Y00507D02*
D03*
Y00527D02*
D03*
Y00547D02*
D03*
D29*
X00351D02*
D03*
D30*
X003178Y00603D02*
D03*
Y006895D02*
D03*
D31*
X003141Y006165D02*
D03*
Y00642D02*
D03*
Y006335D02*
D03*
Y00659D02*
D03*
Y006505D02*
D03*
Y00676D02*
D03*
Y00625D02*
D03*
Y006675D02*
D03*
X003276Y006165D02*
D03*
Y00642D02*
D03*
Y006335D02*
D03*
Y00659D02*
D03*
Y006505D02*
D03*
Y00676D02*
D03*
Y00625D02*
D03*
Y006675D02*
D03*
D32*
X00284Y00603D02*
D03*
Y006895D02*
D03*
D33*
X0049211Y0056311D02*
D03*
X00529Y0057D02*
D03*
X0068587Y0051781D02*
D03*
X00731Y00461D02*
D03*
X00717Y00456D02*
D03*
X0089Y00408D02*
D03*
X00689Y0053D02*
D03*
X00776Y00514D02*
D03*
X00714Y00599D02*
D03*
X0074681Y0059877D02*
D03*
X00635Y0053D02*
D03*
X00645Y00531D02*
D03*
X00671Y0052D02*
D03*
X00595Y00481D02*
D03*
X00717Y00536D02*
D03*
X0051507Y0061037D02*
D03*
X0051523Y0063921D02*
D03*
X00542Y00535D02*
D03*
X00556Y00587D02*
D03*
X00521Y00563D02*
D03*
X00367Y00625D02*
D03*
X01028Y00513D02*
D03*
X00827Y00517D02*
D03*
X0055787Y00654D02*
D03*
X00347Y00699D02*
D03*
X00436Y00643D02*
D03*
X004055Y0064293D02*
D03*
X0104778Y0032819D02*
D03*
X00651Y0033D02*
D03*
X0045Y00329D02*
D03*
M02*
