G04*
G04 #@! TF.GenerationSoftware,Altium Limited,CircuitMaker,2.2.1 (2.2.1.6)*
G04*
G04 Layer_Color=8150272*
%FSTAX43Y43*%
%MOMM*%
G71*
G04*
G04 #@! TF.SameCoordinates,C8B466FA-36BC-4938-8632-075A3B1F3AF2*
G04*
G04*
G04 #@! TF.FilePolarity,Negative*
G04*
G01*
G75*
%ADD25C,1.727*%
%ADD26C,2.489*%
%ADD27C,4.191*%
%ADD28C,1.600*%
%ADD29R,1.600X1.600*%
%ADD30O,2.603X1.103*%
%ADD31O,0.950X0.680*%
%ADD32O,1.903X1.103*%
%ADD33C,0.803*%
%ADD55R,1.903X1.003*%
%ADD56R,1.003X1.003*%
D25*
X008702Y005802D02*
D03*
X007686D02*
D03*
X0115Y0076D02*
D03*
X0029D02*
D03*
X005692Y0038D02*
D03*
X006708D02*
D03*
X009692Y0058D02*
D03*
X010708D02*
D03*
X003692Y0038D02*
D03*
X004708D02*
D03*
X007692D02*
D03*
X008708D02*
D03*
X009692D02*
D03*
X010708D02*
D03*
X0115Y003D02*
D03*
X0029Y00303D02*
D03*
D26*
X00794Y00631D02*
D03*
X008575Y006056D02*
D03*
X006581Y004054D02*
D03*
X005946Y004308D02*
D03*
X010581Y006054D02*
D03*
X009946Y006308D02*
D03*
X004581Y004054D02*
D03*
X003946Y004308D02*
D03*
X008581Y004054D02*
D03*
X007946Y004308D02*
D03*
X010581Y004054D02*
D03*
X009946Y004308D02*
D03*
D27*
X008194Y005802D02*
D03*
X0062Y0038D02*
D03*
X0102Y0058D02*
D03*
X0042Y0038D02*
D03*
X0082D02*
D03*
X0102D02*
D03*
D28*
X00351Y00507D02*
D03*
Y00527D02*
D03*
X00331Y00507D02*
D03*
Y00527D02*
D03*
Y00547D02*
D03*
D29*
X00351D02*
D03*
D30*
X003178Y00603D02*
D03*
Y006895D02*
D03*
D31*
X003141Y006165D02*
D03*
Y00642D02*
D03*
Y006335D02*
D03*
Y00659D02*
D03*
Y006505D02*
D03*
Y00676D02*
D03*
Y00625D02*
D03*
Y006675D02*
D03*
X003276Y006165D02*
D03*
Y00642D02*
D03*
Y006335D02*
D03*
Y00659D02*
D03*
Y006505D02*
D03*
Y00676D02*
D03*
Y00625D02*
D03*
Y006675D02*
D03*
D32*
X00284Y00603D02*
D03*
Y006895D02*
D03*
D33*
X0049211Y0056311D02*
D03*
X00529Y0057D02*
D03*
X0068587Y0051781D02*
D03*
X00731Y00461D02*
D03*
X00717Y00456D02*
D03*
X0089Y00408D02*
D03*
X00689Y0053D02*
D03*
X00776Y00514D02*
D03*
X00714Y00599D02*
D03*
X0074681Y0059877D02*
D03*
X00635Y0053D02*
D03*
X00645Y00531D02*
D03*
X00671Y0052D02*
D03*
X00595Y00481D02*
D03*
X00717Y00536D02*
D03*
X0051507Y0061037D02*
D03*
X0051523Y0063921D02*
D03*
X00542Y00535D02*
D03*
X00556Y00587D02*
D03*
X00521Y00563D02*
D03*
X00367Y00625D02*
D03*
X01028Y00513D02*
D03*
X00827Y00517D02*
D03*
X0055787Y00654D02*
D03*
X00347Y00699D02*
D03*
X00436Y00643D02*
D03*
X004055Y0064293D02*
D03*
X0104778Y0032819D02*
D03*
X00651Y0033D02*
D03*
X0045Y00329D02*
D03*
D55*
X00267Y00464D02*
D03*
Y0043D02*
D03*
D56*
X008275Y00329D02*
D03*
X008125D02*
D03*
X006275Y0033D02*
D03*
X006125D02*
D03*
X004275Y00329D02*
D03*
X004125D02*
D03*
X008275Y00531D02*
D03*
X008125D02*
D03*
X010275Y0053D02*
D03*
X010125D02*
D03*
X010275Y00329D02*
D03*
X010125D02*
D03*
M02*
