G04*
G04 #@! TF.GenerationSoftware,Altium Limited,CircuitMaker,2.2.1 (2.2.1.6)*
G04*
G04 Layer_Color=15132400*
%FSTAX43Y43*%
%MOMM*%
G71*
G04*
G04 #@! TF.SameCoordinates,C8B466FA-36BC-4938-8632-075A3B1F3AF2*
G04*
G04*
G04 #@! TF.FilePolarity,Positive*
G04*
G01*
G75*
%ADD10C,0.254*%
%ADD11C,0.600*%
%ADD12C,0.250*%
%ADD13C,0.127*%
%ADD14C,0.100*%
%ADD15C,0.200*%
%ADD16C,0.203*%
D10*
X00444Y00507D02*
G03*
X00444Y00507I-00015J0D01*
G01*
X00254Y00487D02*
Y00567D01*
X003605D01*
Y00487D02*
Y00567D01*
X00254Y00487D02*
X003605D01*
X0062284Y0048662D02*
X00633Y0047138D01*
Y0048662D02*
X0062284Y0047138D01*
X0063808D02*
X0064316D01*
X0064062D01*
Y0048662D01*
X0063808Y0048408D01*
X0060784Y0064362D02*
Y0063092D01*
X0061038Y0062838D01*
X0061546D01*
X00618Y0063092D01*
Y0064362D01*
X0062308Y0062838D02*
X0062816D01*
X0062562D01*
Y0064362D01*
X0062308Y0064108D01*
X0041938Y0055208D02*
X0041684Y0055462D01*
X0041176D01*
X0040923Y0055208D01*
Y0054954D01*
X0041176Y00547D01*
X0041684D01*
X0041938Y0054446D01*
Y0054192D01*
X0041684Y0053938D01*
X0041176D01*
X0040923Y0054192D01*
X0042446Y0055462D02*
Y0053938D01*
X0042954Y0054446D01*
X0043462Y0053938D01*
Y0055462D01*
X004397Y0053938D02*
X0044477D01*
X0044224D01*
Y0055462D01*
X004397Y0055208D01*
X0080796Y0049938D02*
Y0051462D01*
X0081557D01*
X0081811Y0051208D01*
Y00507D01*
X0081557Y0050446D01*
X0080796D01*
X0081303D02*
X0081811Y0049938D01*
X0082319D02*
X0082827D01*
X0082573D01*
Y0051462D01*
X0082319Y0051208D01*
X0084604Y0049938D02*
X0083589D01*
X0084604Y0050954D01*
Y0051208D01*
X008435Y0051462D01*
X0083843D01*
X0083589Y0051208D01*
X010115Y0049938D02*
Y0051462D01*
X0101911D01*
X0102165Y0051208D01*
Y00507D01*
X0101911Y0050446D01*
X010115D01*
X0101657D02*
X0102165Y0049938D01*
X0102673D02*
X0103181D01*
X0102927D01*
Y0051462D01*
X0102673Y0051208D01*
X0103943Y0049938D02*
X010445D01*
X0104197D01*
Y0051462D01*
X0103943Y0051208D01*
X0107296Y0048638D02*
Y0050162D01*
X0108057D01*
X0108311Y0049908D01*
Y00494D01*
X0108057Y0049146D01*
X0107296D01*
X0107803D02*
X0108311Y0048638D01*
X0108819D02*
X0109327D01*
X0109073D01*
Y0050162D01*
X0108819Y0049908D01*
X0110089D02*
X0110343Y0050162D01*
X011085D01*
X0111104Y0049908D01*
Y0048892D01*
X011085Y0048638D01*
X0110343D01*
X0110089Y0048892D01*
Y0049908D01*
X008843Y0048638D02*
Y0050162D01*
X0089192D01*
X0089446Y0049908D01*
Y00494D01*
X0089192Y0049146D01*
X008843D01*
X0088938D02*
X0089446Y0048638D01*
X0089954Y0048892D02*
X0090208Y0048638D01*
X0090716D01*
X009097Y0048892D01*
Y0049908D01*
X0090716Y0050162D01*
X0090208D01*
X0089954Y0049908D01*
Y0049654D01*
X0090208Y00494D01*
X009097D01*
X006693Y0045138D02*
Y0046662D01*
X0067692D01*
X0067946Y0046408D01*
Y00459D01*
X0067692Y0045646D01*
X006693D01*
X0067438D02*
X0067946Y0045138D01*
X0068454Y0046408D02*
X0068708Y0046662D01*
X0069216D01*
X006947Y0046408D01*
Y0046154D01*
X0069216Y00459D01*
X006947Y0045646D01*
Y0045392D01*
X0069216Y0045138D01*
X0068708D01*
X0068454Y0045392D01*
Y0045646D01*
X0068708Y00459D01*
X0068454Y0046154D01*
Y0046408D01*
X0068708Y00459D02*
X0069216D01*
X0049225Y0048387D02*
Y0049911D01*
X0049987D01*
X0050241Y0049657D01*
Y0049149D01*
X0049987Y0048895D01*
X0049225D01*
X0049733D02*
X0050241Y0048387D01*
X0050749Y0049911D02*
X0051764D01*
Y0049657D01*
X0050749Y0048641D01*
Y0048387D01*
X007145Y0064084D02*
Y0065608D01*
X0072212D01*
X0072466Y0065354D01*
Y0064846D01*
X0072212Y0064592D01*
X007145D01*
X0071958D02*
X0072466Y0064084D01*
X0073989Y0065608D02*
X0073482Y0065354D01*
X0072974Y0064846D01*
Y0064338D01*
X0073228Y0064084D01*
X0073735D01*
X0073989Y0064338D01*
Y0064592D01*
X0073735Y0064846D01*
X0072974D01*
X0052305Y0049538D02*
Y0051062D01*
X0053067D01*
X0053321Y0050808D01*
Y00503D01*
X0053067Y0050046D01*
X0052305D01*
X0052813D02*
X0053321Y0049538D01*
X0054845Y0051062D02*
X0053829D01*
Y00503D01*
X0054337Y0050554D01*
X0054591D01*
X0054845Y00503D01*
Y0049792D01*
X0054591Y0049538D01*
X0054083D01*
X0053829Y0049792D01*
X003833Y0057738D02*
Y0059262D01*
X0039092D01*
X0039346Y0059008D01*
Y00585D01*
X0039092Y0058246D01*
X003833D01*
X0038838D02*
X0039346Y0057738D01*
X0040616D02*
Y0059262D01*
X0039854Y00585D01*
X004087D01*
X004183Y0066338D02*
Y0067862D01*
X0042592D01*
X0042846Y0067608D01*
Y00671D01*
X0042592Y0066846D01*
X004183D01*
X0042338D02*
X0042846Y0066338D01*
X0043354Y0067608D02*
X0043608Y0067862D01*
X0044116D01*
X004437Y0067608D01*
Y0067354D01*
X0044116Y00671D01*
X0043862D01*
X0044116D01*
X004437Y0066846D01*
Y0066592D01*
X0044116Y0066338D01*
X0043608D01*
X0043354Y0066592D01*
X003573Y0061838D02*
Y0063362D01*
X0036492D01*
X0036746Y0063108D01*
Y00626D01*
X0036492Y0062346D01*
X003573D01*
X0036238D02*
X0036746Y0061838D01*
X003827D02*
X0037254D01*
X003827Y0062854D01*
Y0063108D01*
X0038016Y0063362D01*
X0037508D01*
X0037254Y0063108D01*
X0036084Y0067338D02*
Y0068862D01*
X0036846D01*
X00371Y0068608D01*
Y00681D01*
X0036846Y0067846D01*
X0036084D01*
X0036592D02*
X00371Y0067338D01*
X0037608D02*
X0038116D01*
X0037862D01*
Y0068862D01*
X0037608Y0068608D01*
X0074091Y0056032D02*
Y0057048D01*
X0073838Y0057302D01*
X007333D01*
X0073076Y0057048D01*
Y0056032D01*
X007333Y0055778D01*
X0073838D01*
X0073584Y0056286D02*
X0074091Y0055778D01*
X0073838D02*
X0074091Y0056032D01*
X0074599Y0055778D02*
X0075107D01*
X0074853D01*
Y0057302D01*
X0074599Y0057048D01*
X0026184Y0070138D02*
Y0071662D01*
X0026946D01*
X00272Y0071408D01*
Y00709D01*
X0026946Y0070646D01*
X0026184D01*
X0027708Y0070138D02*
X0028216D01*
X0027962D01*
Y0071662D01*
X0027708Y0071408D01*
X00269Y0058562D02*
X0026392D01*
X0026646D01*
Y0057292D01*
X0026392Y0057038D01*
X0026138D01*
X0025884Y0057292D01*
X0027408Y0057038D02*
X0027916D01*
X0027662D01*
Y0058562D01*
X0027408Y0058308D01*
X0071551Y0059994D02*
X0071298Y0060248D01*
X007079D01*
X0070536Y0059994D01*
Y0058979D01*
X007079Y0058725D01*
X0071298D01*
X0071551Y0058979D01*
X0072059Y0058725D02*
X0072567D01*
X0072313D01*
Y0060248D01*
X0072059Y0059994D01*
X0073329D02*
X0073583Y0060248D01*
X0074091D01*
X0074345Y0059994D01*
Y0058979D01*
X0074091Y0058725D01*
X0073583D01*
X0073329Y0058979D01*
Y0059994D01*
X0050046Y0064508D02*
X0049792Y0064762D01*
X0049284D01*
X004903Y0064508D01*
Y0063492D01*
X0049284Y0063238D01*
X0049792D01*
X0050046Y0063492D01*
X0050554D02*
X0050808Y0063238D01*
X0051316D01*
X005157Y0063492D01*
Y0064508D01*
X0051316Y0064762D01*
X0050808D01*
X0050554Y0064508D01*
Y0064254D01*
X0050808Y0064D01*
X005157D01*
X0066167Y007145D02*
X0065913Y0071704D01*
X0065405D01*
X0065151Y007145D01*
Y0070434D01*
X0065405Y007018D01*
X0065913D01*
X0066167Y0070434D01*
X0066675Y007145D02*
X0066928Y0071704D01*
X0067436D01*
X006769Y007145D01*
Y0071196D01*
X0067436Y0070942D01*
X006769Y0070688D01*
Y0070434D01*
X0067436Y007018D01*
X0066928D01*
X0066675Y0070434D01*
Y0070688D01*
X0066928Y0070942D01*
X0066675Y0071196D01*
Y007145D01*
X0066928Y0070942D02*
X0067436D01*
X0055372Y0069951D02*
X0055118Y0070205D01*
X005461D01*
X0054356Y0069951D01*
Y0068936D01*
X005461Y0068682D01*
X0055118D01*
X0055372Y0068936D01*
X005588Y0070205D02*
X0056895D01*
Y0069951D01*
X005588Y0068936D01*
Y0068682D01*
X0054646Y0054308D02*
X0054392Y0054562D01*
X0053884D01*
X005363Y0054308D01*
Y0053292D01*
X0053884Y0053038D01*
X0054392D01*
X0054646Y0053292D01*
X005617Y0054562D02*
X0055662Y0054308D01*
X0055154Y00538D01*
Y0053292D01*
X0055408Y0053038D01*
X0055916D01*
X005617Y0053292D01*
Y0053546D01*
X0055916Y00538D01*
X0055154D01*
X0059156Y007145D02*
X0058902Y0071704D01*
X0058395D01*
X0058141Y007145D01*
Y0070434D01*
X0058395Y007018D01*
X0058902D01*
X0059156Y0070434D01*
X006068Y0071704D02*
X0059664D01*
Y0070942D01*
X0060172Y0071196D01*
X0060426D01*
X006068Y0070942D01*
Y0070434D01*
X0060426Y007018D01*
X0059918D01*
X0059664Y0070434D01*
X0036646Y0071908D02*
X0036392Y0072162D01*
X0035884D01*
X003563Y0071908D01*
Y0070892D01*
X0035884Y0070638D01*
X0036392D01*
X0036646Y0070892D01*
X0037916Y0070638D02*
Y0072162D01*
X0037154Y00714D01*
X003817D01*
X0051746Y0060608D02*
X0051492Y0060862D01*
X0050984D01*
X005073Y0060608D01*
Y0059592D01*
X0050984Y0059338D01*
X0051492D01*
X0051746Y0059592D01*
X0052254Y0060608D02*
X0052508Y0060862D01*
X0053016D01*
X005327Y0060608D01*
Y0060354D01*
X0053016Y00601D01*
X0052762D01*
X0053016D01*
X005327Y0059846D01*
Y0059592D01*
X0053016Y0059338D01*
X0052508D01*
X0052254Y0059592D01*
X0070546Y0050508D02*
X0070292Y0050762D01*
X0069784D01*
X006953Y0050508D01*
Y0049492D01*
X0069784Y0049238D01*
X0070292D01*
X0070546Y0049492D01*
X007207Y0049238D02*
X0071054D01*
X007207Y0050254D01*
Y0050508D01*
X0071816Y0050762D01*
X0071308D01*
X0071054Y0050508D01*
X00583Y0052808D02*
X0058046Y0053062D01*
X0057538D01*
X0057284Y0052808D01*
Y0051792D01*
X0057538Y0051538D01*
X0058046D01*
X00583Y0051792D01*
X0058808Y0051538D02*
X0059316D01*
X0059062D01*
Y0053062D01*
X0058808Y0052808D01*
D11*
X0059538Y0063713D02*
G03*
X0059538Y0063713I-00003J0D01*
G01*
D12*
X0057213Y0065088D02*
G03*
X0057213Y0065088I-0000125J0D01*
G01*
X0079925Y00539D02*
G03*
X0079925Y00539I-0000125J0D01*
G01*
D13*
X0070438Y0054626D02*
X0071962D01*
X0070438Y0057674D02*
X0071962D01*
X0070438Y0054626D02*
Y0055769D01*
Y0056531D02*
Y0057674D01*
X0071962Y0054626D02*
Y0055769D01*
Y0056531D02*
Y0057674D01*
X0053476Y0051238D02*
Y0052762D01*
X0056524Y0051238D02*
Y0052762D01*
X0053476D02*
X0054619D01*
X0055381D02*
X0056524D01*
X0053476Y0051238D02*
X0054619D01*
X0055381D02*
X0056524D01*
X0052176Y0063138D02*
Y0064662D01*
X0055224Y0063138D02*
Y0064662D01*
X0052176D02*
X0053319D01*
X0054081D02*
X0055224D01*
X0052176Y0063138D02*
X0053319D01*
X0054081D02*
X0055224D01*
X0058176Y0067738D02*
Y0069262D01*
X0061224Y0067738D02*
Y0069262D01*
X0058176D02*
X0059319D01*
X0060081D02*
X0061224D01*
X0058176Y0067738D02*
X0059319D01*
X0060081D02*
X0061224D01*
X0065176D02*
Y0069262D01*
X0068224Y0067738D02*
Y0069262D01*
X0065176D02*
X0066319D01*
X0067081D02*
X0068224D01*
X0065176Y0067738D02*
X0066319D01*
X0067081D02*
X0068224D01*
X0054376Y0066238D02*
Y0067762D01*
X0057424Y0066238D02*
Y0067762D01*
X0054376D02*
X0055519D01*
X0056281D02*
X0057424D01*
X0054376Y0066238D02*
X0055519D01*
X0056281D02*
X0057424D01*
D14*
X003965Y004945D02*
Y005195D01*
X004615Y004945D02*
Y005195D01*
X003965Y00477D02*
X004615D01*
X003965Y00537D02*
X004615D01*
D15*
X0035603Y0066962D02*
X0038397D01*
X0035603Y0065438D02*
Y0066962D01*
X0038397Y0065438D02*
Y0066962D01*
X0035603Y0065438D02*
X0038397D01*
X0035625Y0065075D02*
X0038419D01*
X0035625Y0063551D02*
Y0065075D01*
X0038419Y0063551D02*
Y0065075D01*
X0035625Y0063551D02*
X0038419D01*
X0058238Y0055813D02*
X0067138D01*
X0058238Y0064713D02*
X0067138D01*
Y0055813D02*
Y0064713D01*
X0058238Y0055813D02*
Y0064713D01*
X007945Y0049D02*
Y00525D01*
X0073D02*
X007945D01*
X007295Y0049D02*
Y00525D01*
Y0049D02*
X007945D01*
D16*
X0024211Y0059926D02*
X0027259D01*
X0029545D02*
X0030307D01*
X0024211Y0069324D02*
X0027259D01*
X0029545D02*
X0030307D01*
M02*
